{
	"patcher" : 	{
		"fileversion" : 1,
		"appversion" : 		{
			"major" : 8,
			"minor" : 3,
			"revision" : 0,
			"architecture" : "x64",
			"modernui" : 1
		}
,
		"classnamespace" : "box",
		"rect" : [ 34.0, 87.0, 652.0, 787.0 ],
		"bglocked" : 0,
		"openinpresentation" : 0,
		"default_fontsize" : 12.0,
		"default_fontface" : 0,
		"default_fontname" : "Arial",
		"gridonopen" : 2,
		"gridsize" : [ 15.0, 15.0 ],
		"gridsnaponopen" : 2,
		"objectsnaponopen" : 1,
		"statusbarvisible" : 2,
		"toolbarvisible" : 1,
		"lefttoolbarpinned" : 0,
		"toptoolbarpinned" : 0,
		"righttoolbarpinned" : 0,
		"bottomtoolbarpinned" : 0,
		"toolbars_unpinned_last_save" : 0,
		"tallnewobj" : 0,
		"boxanimatetime" : 200,
		"enablehscroll" : 1,
		"enablevscroll" : 1,
		"devicewidth" : 0.0,
		"description" : "",
		"digest" : "",
		"tags" : "",
		"style" : "",
		"subpatcher_template" : "",
		"showrootpatcherontab" : 0,
		"showontab" : 0,
		"assistshowspatchername" : 0,
		"boxes" : [ 			{
				"box" : 				{
					"id" : "obj-4",
					"maxclass" : "newobj",
					"numinlets" : 0,
					"numoutlets" : 0,
					"patcher" : 					{
						"fileversion" : 1,
						"appversion" : 						{
							"major" : 8,
							"minor" : 3,
							"revision" : 0,
							"architecture" : "x64",
							"modernui" : 1
						}
,
						"classnamespace" : "box",
						"rect" : [ 0.0, 26.0, 652.0, 761.0 ],
						"bglocked" : 0,
						"openinpresentation" : 0,
						"default_fontsize" : 13.0,
						"default_fontface" : 0,
						"default_fontname" : "Arial",
						"gridonopen" : 2,
						"gridsize" : [ 15.0, 15.0 ],
						"gridsnaponopen" : 2,
						"objectsnaponopen" : 1,
						"statusbarvisible" : 2,
						"toolbarvisible" : 1,
						"lefttoolbarpinned" : 0,
						"toptoolbarpinned" : 0,
						"righttoolbarpinned" : 0,
						"bottomtoolbarpinned" : 0,
						"toolbars_unpinned_last_save" : 0,
						"tallnewobj" : 0,
						"boxanimatetime" : 200,
						"enablehscroll" : 1,
						"enablevscroll" : 1,
						"devicewidth" : 0.0,
						"description" : "",
						"digest" : "",
						"tags" : "",
						"style" : "",
						"subpatcher_template" : "",
						"showontab" : 1,
						"assistshowspatchername" : 0,
						"boxes" : [ 							{
								"box" : 								{
									"id" : "obj-26",
									"linecount" : 2,
									"maxclass" : "comment",
									"numinlets" : 1,
									"numoutlets" : 0,
									"patching_rect" : [ 180.0, 624.0, 342.0, 36.0 ],
									"text" : "The difference between fold and mirror will be subtle (for mirror edge values are repeated, but for fold they are not)."
								}

							}
, 							{
								"box" : 								{
									"hidden" : 1,
									"id" : "obj-22",
									"maxclass" : "newobj",
									"numinlets" : 1,
									"numoutlets" : 1,
									"outlettype" : [ "" ],
									"patching_rect" : [ 375.0, 120.0, 75.0, 23.0 ],
									"text" : "loadmess 0"
								}

							}
, 							{
								"box" : 								{
									"id" : "obj-20",
									"linecount" : 2,
									"maxclass" : "comment",
									"numinlets" : 1,
									"numoutlets" : 0,
									"patching_rect" : [ 270.0, 465.0, 318.0, 36.0 ],
									"text" : "The /edge parameter also affects interpolation, so we need bound off to be able to read outside the table."
								}

							}
, 							{
								"box" : 								{
									"id" : "obj-17",
									"maxclass" : "newobj",
									"numinlets" : 2,
									"numoutlets" : 1,
									"outlettype" : [ "" ],
									"patching_rect" : [ 116.0, 390.0, 221.0, 23.0 ],
									"text" : "fl.ramp~ /length 32 /scale normalised"
								}

							}
, 							{
								"box" : 								{
									"id" : "obj-21",
									"linecount" : 3,
									"maxclass" : "comment",
									"numinlets" : 1,
									"numoutlets" : 0,
									"patching_rect" : [ 30.0, 285.0, 303.0, 50.0 ],
									"text" : "We are going to set fl.lookup~ to interpret the input as normalised (0 to 1 across the buffer~) so we are reading well beyond on both sides."
								}

							}
, 							{
								"box" : 								{
									"arrows" : 1,
									"border" : 4.0,
									"id" : "obj-37",
									"maxclass" : "live.line",
									"numinlets" : 1,
									"numoutlets" : 0,
									"patching_rect" : [ 180.0, 585.0, 29.75, 14.5 ]
								}

							}
, 							{
								"box" : 								{
									"id" : "obj-38",
									"maxclass" : "comment",
									"numinlets" : 1,
									"numoutlets" : 0,
									"patching_rect" : [ 213.75, 581.75, 45.0, 21.0 ],
									"text" : "Result"
								}

							}
, 							{
								"box" : 								{
									"id" : "obj-18",
									"maxclass" : "comment",
									"numinlets" : 1,
									"numoutlets" : 0,
									"patching_rect" : [ 270.0, 435.0, 279.0, 21.0 ],
									"text" : "Note that bound is set off so we see the results"
								}

							}
, 							{
								"box" : 								{
									"id" : "obj-14",
									"maxclass" : "comment",
									"numinlets" : 1,
									"numoutlets" : 0,
									"patching_rect" : [ 165.0, 360.0, 119.0, 21.0 ],
									"text" : "Our table is a ramp"
								}

							}
, 							{
								"box" : 								{
									"id" : "obj-19",
									"maxclass" : "newobj",
									"numinlets" : 1,
									"numoutlets" : 1,
									"outlettype" : [ "" ],
									"patching_rect" : [ 438.8125, 390.0, 124.0, 23.0 ],
									"text" : "fl.frommax~ params"
								}

							}
, 							{
								"box" : 								{
									"id" : "obj-11",
									"maxclass" : "multislider",
									"numinlets" : 1,
									"numoutlets" : 2,
									"outlettype" : [ "", "" ],
									"parameter_enable" : 0,
									"patching_rect" : [ 15.0, 525.0, 150.0, 135.0 ],
									"setminmax" : [ -2.0, 2.0 ],
									"size" : 512
								}

							}
, 							{
								"box" : 								{
									"id" : "obj-10",
									"maxclass" : "newobj",
									"numinlets" : 1,
									"numoutlets" : 1,
									"outlettype" : [ "" ],
									"patching_rect" : [ 15.0, 480.0, 62.0, 23.0 ],
									"text" : "fl.tomax~"
								}

							}
, 							{
								"box" : 								{
									"color" : [ 0.92549, 0.364706, 0.341176, 1.0 ],
									"id" : "obj-7",
									"maxclass" : "newobj",
									"numinlets" : 3,
									"numoutlets" : 1,
									"outlettype" : [ "" ],
									"patching_rect" : [ 15.0, 435.0, 223.0, 23.0 ],
									"text" : "fl.lookup~ /scale normalised /bound 0"
								}

							}
, 							{
								"box" : 								{
									"id" : "obj-4",
									"maxclass" : "newobj",
									"numinlets" : 2,
									"numoutlets" : 1,
									"outlettype" : [ "" ],
									"patching_rect" : [ 15.0, 238.5, 135.0, 23.0 ],
									"text" : "fl.map~ linear 0 1 -1 2"
								}

							}
, 							{
								"box" : 								{
									"id" : "obj-1",
									"maxclass" : "newobj",
									"numinlets" : 2,
									"numoutlets" : 1,
									"outlettype" : [ "" ],
									"patching_rect" : [ 15.0, 193.5, 229.0, 23.0 ],
									"text" : "fl.ramp~ /length 512 /scale normalised"
								}

							}
, 							{
								"box" : 								{
									"id" : "obj-30",
									"maxclass" : "comment",
									"numinlets" : 1,
									"numoutlets" : 0,
									"patching_rect" : [ 15.0, 92.0, 607.0, 21.0 ],
									"text" : "fl.lookup~ has various behaviours for handling input values that extend past the boundaries of the table. "
								}

							}
, 							{
								"box" : 								{
									"id" : "obj-9",
									"maxclass" : "message",
									"numinlets" : 2,
									"numoutlets" : 1,
									"outlettype" : [ "" ],
									"patching_rect" : [ 438.8125, 345.0, 62.0, 23.0 ],
									"text" : "edges $1"
								}

							}
, 							{
								"box" : 								{
									"fontname" : "Arial",
									"fontsize" : 13.0,
									"id" : "obj-5",
									"maxclass" : "comment",
									"numinlets" : 1,
									"numoutlets" : 0,
									"patching_rect" : [ 425.8125, 150.0, 45.0, 21.0 ],
									"text" : "Edges",
									"textjustification" : 1
								}

							}
, 							{
								"box" : 								{
									"id" : "obj-6",
									"maxclass" : "live.tab",
									"num_lines_patching" : 6,
									"num_lines_presentation" : 6,
									"numinlets" : 1,
									"numoutlets" : 3,
									"outlettype" : [ "", "", "float" ],
									"parameter_enable" : 1,
									"patching_rect" : [ 375.0, 171.5, 146.625, 159.5 ],
									"presentation" : 1,
									"presentation_rect" : [ 135.0, 45.0, 120.0, 150.0 ],
									"saved_attribute_attributes" : 									{
										"valueof" : 										{
											"parameter_enum" : [ "zero", "extend", "wrap", "fold", "mirror", "extrapolate" ],
											"parameter_longname" : "live.tab[1]",
											"parameter_mmax" : 5,
											"parameter_shortname" : "live.tab",
											"parameter_type" : 2,
											"parameter_unitstyle" : 9
										}

									}
,
									"varname" : "live.tab[1]"
								}

							}
, 							{
								"box" : 								{
									"id" : "obj-12",
									"local" : 1,
									"maxclass" : "ezdac~",
									"numinlets" : 2,
									"numoutlets" : 0,
									"patching_rect" : [ 540.0, 615.0, 45.0, 45.0 ]
								}

							}
, 							{
								"box" : 								{
									"id" : "obj-15",
									"maxclass" : "comment",
									"numinlets" : 1,
									"numoutlets" : 0,
									"patching_rect" : [ 155.0, 241.5, 162.0, 21.0 ],
									"text" : "Create a ramp from -1 to 2"
								}

							}
, 							{
								"box" : 								{
									"id" : "obj-33",
									"maxclass" : "newobj",
									"numinlets" : 1,
									"numoutlets" : 1,
									"outlettype" : [ "" ],
									"patching_rect" : [ 15.0, 150.0, 114.0, 23.0 ],
									"text" : "fl.interval~ 100 ms"
								}

							}
, 							{
								"box" : 								{
									"border" : 0,
									"filename" : "fl.helpname.js",
									"id" : "obj-3",
									"ignoreclick" : 1,
									"jsarguments" : [ "fl.lookup~" ],
									"maxclass" : "jsui",
									"numinlets" : 1,
									"numoutlets" : 1,
									"outlettype" : [ "" ],
									"parameter_enable" : 0,
									"patching_rect" : [ 15.0, 15.0, 435.0, 75.0 ]
								}

							}
 ],
						"lines" : [ 							{
								"patchline" : 								{
									"destination" : [ "obj-4", 0 ],
									"source" : [ "obj-1", 0 ]
								}

							}
, 							{
								"patchline" : 								{
									"destination" : [ "obj-11", 0 ],
									"source" : [ "obj-10", 0 ]
								}

							}
, 							{
								"patchline" : 								{
									"destination" : [ "obj-7", 1 ],
									"source" : [ "obj-17", 0 ]
								}

							}
, 							{
								"patchline" : 								{
									"destination" : [ "obj-7", 2 ],
									"midpoints" : [ 448.3125, 423.5, 228.5, 423.5 ],
									"source" : [ "obj-19", 0 ]
								}

							}
, 							{
								"patchline" : 								{
									"destination" : [ "obj-6", 0 ],
									"hidden" : 1,
									"source" : [ "obj-22", 0 ]
								}

							}
, 							{
								"patchline" : 								{
									"destination" : [ "obj-1", 0 ],
									"order" : 1,
									"source" : [ "obj-33", 0 ]
								}

							}
, 							{
								"patchline" : 								{
									"destination" : [ "obj-19", 0 ],
									"midpoints" : [ 24.5, 182.0, 355.0, 182.0, 355.0, 377.0, 448.3125, 377.0 ],
									"order" : 0,
									"source" : [ "obj-33", 0 ]
								}

							}
, 							{
								"patchline" : 								{
									"destination" : [ "obj-17", 0 ],
									"midpoints" : [ 24.5, 367.0, 125.5, 367.0 ],
									"order" : 0,
									"source" : [ "obj-4", 0 ]
								}

							}
, 							{
								"patchline" : 								{
									"destination" : [ "obj-7", 0 ],
									"order" : 1,
									"source" : [ "obj-4", 0 ]
								}

							}
, 							{
								"patchline" : 								{
									"destination" : [ "obj-9", 0 ],
									"source" : [ "obj-6", 1 ]
								}

							}
, 							{
								"patchline" : 								{
									"destination" : [ "obj-10", 0 ],
									"source" : [ "obj-7", 0 ]
								}

							}
, 							{
								"patchline" : 								{
									"destination" : [ "obj-19", 0 ],
									"source" : [ "obj-9", 0 ]
								}

							}
 ],
						"styles" : [ 							{
								"name" : "newobjBlue-1",
								"default" : 								{
									"accentcolor" : [ 0.317647, 0.654902, 0.976471, 1.0 ]
								}
,
								"parentstyle" : "",
								"multi" : 0
							}
, 							{
								"name" : "newobjYellow-1",
								"default" : 								{
									"accentcolor" : [ 0.82517, 0.78181, 0.059545, 1.0 ],
									"fontsize" : [ 12.059008 ]
								}
,
								"parentstyle" : "",
								"multi" : 0
							}
, 							{
								"name" : "numberGold-1",
								"default" : 								{
									"accentcolor" : [ 0.764706, 0.592157, 0.101961, 1.0 ]
								}
,
								"parentstyle" : "",
								"multi" : 0
							}
 ]
					}
,
					"patching_rect" : [ 435.0, 230.0, 51.0, 22.0 ],
					"saved_object_attributes" : 					{
						"description" : "",
						"digest" : "",
						"fontsize" : 13.0,
						"globalpatchername" : "",
						"tags" : ""
					}
,
					"text" : "p edges"
				}

			}
, 			{
				"box" : 				{
					"id" : "obj-3",
					"maxclass" : "newobj",
					"numinlets" : 0,
					"numoutlets" : 0,
					"patcher" : 					{
						"fileversion" : 1,
						"appversion" : 						{
							"major" : 8,
							"minor" : 3,
							"revision" : 0,
							"architecture" : "x64",
							"modernui" : 1
						}
,
						"classnamespace" : "box",
						"rect" : [ 0.0, 26.0, 652.0, 761.0 ],
						"bglocked" : 0,
						"openinpresentation" : 0,
						"default_fontsize" : 13.0,
						"default_fontface" : 0,
						"default_fontname" : "Arial",
						"gridonopen" : 2,
						"gridsize" : [ 15.0, 15.0 ],
						"gridsnaponopen" : 2,
						"objectsnaponopen" : 1,
						"statusbarvisible" : 2,
						"toolbarvisible" : 1,
						"lefttoolbarpinned" : 0,
						"toptoolbarpinned" : 0,
						"righttoolbarpinned" : 0,
						"bottomtoolbarpinned" : 0,
						"toolbars_unpinned_last_save" : 0,
						"tallnewobj" : 0,
						"boxanimatetime" : 200,
						"enablehscroll" : 1,
						"enablevscroll" : 1,
						"devicewidth" : 0.0,
						"description" : "",
						"digest" : "",
						"tags" : "",
						"style" : "",
						"subpatcher_template" : "",
						"showontab" : 1,
						"assistshowspatchername" : 0,
						"boxes" : [ 							{
								"box" : 								{
									"id" : "obj-6",
									"linecount" : 2,
									"maxclass" : "comment",
									"numinlets" : 1,
									"numoutlets" : 0,
									"patching_rect" : [ 255.0, 563.5, 353.0, 36.0 ],
									"text" : "We can actually just set the scale to normalised to use the normalised ramp directly."
								}

							}
, 							{
								"box" : 								{
									"id" : "obj-25",
									"maxclass" : "live.dial",
									"numinlets" : 1,
									"numoutlets" : 2,
									"outlettype" : [ "", "float" ],
									"parameter_enable" : 1,
									"patching_rect" : [ 221.0, 193.0, 41.0, 48.0 ],
									"saved_attribute_attributes" : 									{
										"valueof" : 										{
											"parameter_longname" : "live.dial",
											"parameter_mmax" : 100.0,
											"parameter_mmin" : 2.0,
											"parameter_shortname" : "Length",
											"parameter_type" : 0,
											"parameter_unitstyle" : 0
										}

									}
,
									"varname" : "live.dial"
								}

							}
, 							{
								"box" : 								{
									"hidden" : 1,
									"id" : "obj-24",
									"maxclass" : "newobj",
									"numinlets" : 1,
									"numoutlets" : 1,
									"outlettype" : [ "" ],
									"patching_rect" : [ 221.0, 150.0, 82.0, 23.0 ],
									"text" : "loadmess 20"
								}

							}
, 							{
								"box" : 								{
									"hidden" : 1,
									"id" : "obj-23",
									"maxclass" : "newobj",
									"numinlets" : 1,
									"numoutlets" : 1,
									"outlettype" : [ "" ],
									"patching_rect" : [ 394.5, 390.0, 75.0, 23.0 ],
									"text" : "loadmess 0"
								}

							}
, 							{
								"box" : 								{
									"hidden" : 1,
									"id" : "obj-22",
									"maxclass" : "newobj",
									"numinlets" : 1,
									"numoutlets" : 1,
									"outlettype" : [ "" ],
									"patching_rect" : [ 178.5, 390.0, 75.0, 23.0 ],
									"text" : "loadmess 1"
								}

							}
, 							{
								"box" : 								{
									"id" : "obj-21",
									"maxclass" : "message",
									"numinlets" : 2,
									"numoutlets" : 1,
									"outlettype" : [ "" ],
									"patching_rect" : [ 221.0, 255.0, 62.0, 23.0 ],
									"text" : "length $1"
								}

							}
, 							{
								"box" : 								{
									"id" : "obj-19",
									"maxclass" : "newobj",
									"numinlets" : 1,
									"numoutlets" : 1,
									"outlettype" : [ "" ],
									"patching_rect" : [ 221.0, 300.0, 124.0, 23.0 ],
									"text" : "fl.frommax~ params"
								}

							}
, 							{
								"box" : 								{
									"id" : "obj-16",
									"linecount" : 2,
									"maxclass" : "comment",
									"numinlets" : 1,
									"numoutlets" : 0,
									"patching_rect" : [ 15.0, 92.0, 512.0, 36.0 ],
									"text" : "You can also experiment with how interpolation and the size of the lookup table change the process."
								}

							}
, 							{
								"box" : 								{
									"id" : "obj-15",
									"maxclass" : "message",
									"numinlets" : 2,
									"numoutlets" : 1,
									"outlettype" : [ "" ],
									"patching_rect" : [ 435.0, 458.0, 62.0, 23.0 ],
									"text" : "edges $1"
								}

							}
, 							{
								"box" : 								{
									"id" : "obj-13",
									"maxclass" : "message",
									"numinlets" : 2,
									"numoutlets" : 1,
									"outlettype" : [ "" ],
									"patching_rect" : [ 219.0, 458.0, 59.0, 23.0 ],
									"text" : "interp $1"
								}

							}
, 							{
								"box" : 								{
									"id" : "obj-10",
									"maxclass" : "comment",
									"numinlets" : 1,
									"numoutlets" : 0,
									"patching_rect" : [ 495.0, 420.5, 98.0, 21.0 ],
									"text" : "edge behaviour"
								}

							}
, 							{
								"box" : 								{
									"id" : "obj-11",
									"items" : [ "zero", ",", "extend", ",", "mirror", ",", "wrap", ",", "fold", ",", "extrapolate" ],
									"maxclass" : "umenu",
									"numinlets" : 1,
									"numoutlets" : 3,
									"outlettype" : [ "int", "", "" ],
									"parameter_enable" : 0,
									"patching_rect" : [ 394.5, 419.5, 100.0, 23.0 ]
								}

							}
, 							{
								"box" : 								{
									"id" : "obj-9",
									"maxclass" : "comment",
									"numinlets" : 1,
									"numoutlets" : 0,
									"patching_rect" : [ 285.0, 420.5, 79.0, 21.0 ],
									"text" : "interpolation"
								}

							}
, 							{
								"box" : 								{
									"id" : "obj-5",
									"items" : [ "none", ",", "linear", ",", "hermite", ",", "bspline", ",", "lagrange" ],
									"maxclass" : "umenu",
									"numinlets" : 1,
									"numoutlets" : 3,
									"outlettype" : [ "int", "", "" ],
									"parameter_enable" : 0,
									"patching_rect" : [ 178.5, 419.5, 100.0, 23.0 ]
								}

							}
, 							{
								"box" : 								{
									"id" : "obj-1",
									"maxclass" : "newobj",
									"numinlets" : 1,
									"numoutlets" : 1,
									"outlettype" : [ "" ],
									"patching_rect" : [ 219.0, 525.0, 124.0, 23.0 ],
									"text" : "fl.frommax~ params"
								}

							}
, 							{
								"box" : 								{
									"id" : "obj-2",
									"local" : 1,
									"maxclass" : "ezdac~",
									"numinlets" : 2,
									"numoutlets" : 0,
									"patching_rect" : [ 585.0, 685.0, 45.0, 45.0 ]
								}

							}
, 							{
								"box" : 								{
									"fontsize" : 9.0,
									"hidden" : 1,
									"id" : "obj-89",
									"linecount" : 2,
									"maxclass" : "newobj",
									"numinlets" : 1,
									"numoutlets" : 1,
									"outlettype" : [ "" ],
									"patching_rect" : [ 394.1409912109375, 165.0, 223.0, 29.0 ],
									"text" : "loadmess 0.588235 0.694118 0.788235 0.470588 0.670588 0.729412 0.247059 0.341176 0.423529 0."
								}

							}
, 							{
								"box" : 								{
									"candicane2" : [ 0.0, 0.533333, 0.168627, 1.0 ],
									"candycane" : 2,
									"contdata" : 1,
									"ghostbar" : 90,
									"id" : "obj-86",
									"maxclass" : "multislider",
									"numinlets" : 1,
									"numoutlets" : 2,
									"outlettype" : [ "", "" ],
									"parameter_enable" : 0,
									"patching_rect" : [ 394.1409912109375, 208.0, 236.0, 85.0 ],
									"setminmax" : [ 0.0, 1.0 ],
									"size" : 10
								}

							}
, 							{
								"box" : 								{
									"id" : "obj-85",
									"maxclass" : "newobj",
									"numinlets" : 1,
									"numoutlets" : 1,
									"outlettype" : [ "" ],
									"patching_rect" : [ 117.0, 525.0, 77.0, 23.0 ],
									"text" : "fl.frommax~"
								}

							}
, 							{
								"box" : 								{
									"id" : "obj-68",
									"maxclass" : "newobj",
									"numinlets" : 1,
									"numoutlets" : 1,
									"outlettype" : [ "" ],
									"patching_rect" : [ 15.0, 150.0, 75.0, 23.0 ],
									"text" : "fl.perblock~"
								}

							}
, 							{
								"box" : 								{
									"id" : "obj-66",
									"maxclass" : "newobj",
									"numinlets" : 2,
									"numoutlets" : 1,
									"outlettype" : [ "" ],
									"patching_rect" : [ 15.0, 330.0, 225.0, 23.0 ],
									"text" : "fl.ramp~ /scale normalised /length 20"
								}

							}
, 							{
								"box" : 								{
									"id" : "obj-58",
									"maxclass" : "newobj",
									"numinlets" : 1,
									"numoutlets" : 1,
									"outlettype" : [ "" ],
									"patching_rect" : [ 15.0, 607.0, 62.0, 23.0 ],
									"text" : "fl.tomax~"
								}

							}
, 							{
								"box" : 								{
									"candicane2" : [ 0.141176470588235, 0.352941176470588, 0.172549019607843, 1.0 ],
									"ghostbar" : 100,
									"id" : "obj-46",
									"ignoreclick" : 1,
									"maxclass" : "multislider",
									"numinlets" : 1,
									"numoutlets" : 2,
									"outlettype" : [ "", "" ],
									"parameter_enable" : 0,
									"patching_rect" : [ 15.0, 645.0, 236.0, 85.0 ],
									"setminmax" : [ 0.0, 1.0 ],
									"size" : 20
								}

							}
, 							{
								"box" : 								{
									"color" : [ 0.92549, 0.364706, 0.341176, 1.0 ],
									"id" : "obj-37",
									"maxclass" : "newobj",
									"numinlets" : 3,
									"numoutlets" : 1,
									"outlettype" : [ "" ],
									"patching_rect" : [ 15.0, 570.0, 223.0, 23.0 ],
									"text" : "fl.lookup~ /scale normalised /bound 0"
								}

							}
, 							{
								"box" : 								{
									"border" : 0,
									"filename" : "fl.helpname.js",
									"id" : "obj-3",
									"ignoreclick" : 1,
									"jsarguments" : [ "fl.lookup~" ],
									"maxclass" : "jsui",
									"numinlets" : 1,
									"numoutlets" : 1,
									"outlettype" : [ "" ],
									"parameter_enable" : 0,
									"patching_rect" : [ 15.0, 15.0, 435.0, 75.0 ]
								}

							}
 ],
						"lines" : [ 							{
								"patchline" : 								{
									"destination" : [ "obj-37", 2 ],
									"source" : [ "obj-1", 0 ]
								}

							}
, 							{
								"patchline" : 								{
									"destination" : [ "obj-15", 0 ],
									"source" : [ "obj-11", 1 ]
								}

							}
, 							{
								"patchline" : 								{
									"destination" : [ "obj-1", 0 ],
									"source" : [ "obj-13", 0 ]
								}

							}
, 							{
								"patchline" : 								{
									"destination" : [ "obj-1", 0 ],
									"midpoints" : [ 444.5, 502.5, 228.5, 502.5 ],
									"source" : [ "obj-15", 0 ]
								}

							}
, 							{
								"patchline" : 								{
									"destination" : [ "obj-66", 1 ],
									"midpoints" : [ 230.5, 324.0, 230.5, 324.0 ],
									"source" : [ "obj-19", 0 ]
								}

							}
, 							{
								"patchline" : 								{
									"destination" : [ "obj-19", 0 ],
									"midpoints" : [ 230.5, 279.0, 230.5, 279.0 ],
									"source" : [ "obj-21", 0 ]
								}

							}
, 							{
								"patchline" : 								{
									"destination" : [ "obj-5", 0 ],
									"hidden" : 1,
									"source" : [ "obj-22", 0 ]
								}

							}
, 							{
								"patchline" : 								{
									"destination" : [ "obj-11", 0 ],
									"hidden" : 1,
									"source" : [ "obj-23", 0 ]
								}

							}
, 							{
								"patchline" : 								{
									"destination" : [ "obj-25", 0 ],
									"hidden" : 1,
									"midpoints" : [ 230.5, 159.0, 230.5, 159.0 ],
									"source" : [ "obj-24", 0 ]
								}

							}
, 							{
								"patchline" : 								{
									"destination" : [ "obj-21", 0 ],
									"source" : [ "obj-25", 0 ]
								}

							}
, 							{
								"patchline" : 								{
									"destination" : [ "obj-58", 0 ],
									"source" : [ "obj-37", 0 ]
								}

							}
, 							{
								"patchline" : 								{
									"destination" : [ "obj-13", 0 ],
									"source" : [ "obj-5", 1 ]
								}

							}
, 							{
								"patchline" : 								{
									"destination" : [ "obj-46", 0 ],
									"source" : [ "obj-58", 0 ]
								}

							}
, 							{
								"patchline" : 								{
									"destination" : [ "obj-1", 0 ],
									"midpoints" : [ 24.5, 504.5, 228.5, 504.5 ],
									"order" : 0,
									"source" : [ "obj-66", 0 ]
								}

							}
, 							{
								"patchline" : 								{
									"destination" : [ "obj-37", 0 ],
									"order" : 2,
									"source" : [ "obj-66", 0 ]
								}

							}
, 							{
								"patchline" : 								{
									"destination" : [ "obj-85", 0 ],
									"midpoints" : [ 24.5, 504.0, 126.5, 504.0 ],
									"order" : 1,
									"source" : [ "obj-66", 0 ]
								}

							}
, 							{
								"patchline" : 								{
									"destination" : [ "obj-19", 0 ],
									"midpoints" : [ 24.5, 287.0, 230.5, 287.0 ],
									"order" : 0,
									"source" : [ "obj-68", 0 ]
								}

							}
, 							{
								"patchline" : 								{
									"destination" : [ "obj-66", 0 ],
									"order" : 1,
									"source" : [ "obj-68", 0 ]
								}

							}
, 							{
								"patchline" : 								{
									"destination" : [ "obj-37", 1 ],
									"source" : [ "obj-85", 0 ]
								}

							}
, 							{
								"patchline" : 								{
									"color" : [ 0.77383816242218, 0.0, 0.0, 1.0 ],
									"destination" : [ "obj-85", 0 ],
									"midpoints" : [ 403.6409912109375, 371.0, 126.5, 371.0 ],
									"source" : [ "obj-86", 0 ]
								}

							}
, 							{
								"patchline" : 								{
									"destination" : [ "obj-86", 0 ],
									"hidden" : 1,
									"source" : [ "obj-89", 0 ]
								}

							}
 ],
						"styles" : [ 							{
								"name" : "newobjBlue-1",
								"default" : 								{
									"accentcolor" : [ 0.317647, 0.654902, 0.976471, 1.0 ]
								}
,
								"parentstyle" : "",
								"multi" : 0
							}
, 							{
								"name" : "newobjYellow-1",
								"default" : 								{
									"accentcolor" : [ 0.82517, 0.78181, 0.059545, 1.0 ],
									"fontsize" : [ 12.059008 ]
								}
,
								"parentstyle" : "",
								"multi" : 0
							}
, 							{
								"name" : "numberGold-1",
								"default" : 								{
									"accentcolor" : [ 0.764706, 0.592157, 0.101961, 1.0 ]
								}
,
								"parentstyle" : "",
								"multi" : 0
							}
 ]
					}
,
					"patching_rect" : [ 330.0, 230.0, 85.0, 22.0 ],
					"saved_object_attributes" : 					{
						"description" : "",
						"digest" : "",
						"fontsize" : 13.0,
						"globalpatchername" : "",
						"tags" : ""
					}
,
					"text" : "p intermediate"
				}

			}
, 			{
				"box" : 				{
					"id" : "obj-2",
					"maxclass" : "newobj",
					"numinlets" : 0,
					"numoutlets" : 0,
					"patcher" : 					{
						"fileversion" : 1,
						"appversion" : 						{
							"major" : 8,
							"minor" : 3,
							"revision" : 0,
							"architecture" : "x64",
							"modernui" : 1
						}
,
						"classnamespace" : "box",
						"rect" : [ 0.0, 26.0, 652.0, 761.0 ],
						"bglocked" : 0,
						"openinpresentation" : 0,
						"default_fontsize" : 12.0,
						"default_fontface" : 0,
						"default_fontname" : "Arial",
						"gridonopen" : 1,
						"gridsize" : [ 15.0, 15.0 ],
						"gridsnaponopen" : 1,
						"objectsnaponopen" : 1,
						"statusbarvisible" : 2,
						"toolbarvisible" : 1,
						"lefttoolbarpinned" : 0,
						"toptoolbarpinned" : 0,
						"righttoolbarpinned" : 0,
						"bottomtoolbarpinned" : 0,
						"toolbars_unpinned_last_save" : 0,
						"tallnewobj" : 0,
						"boxanimatetime" : 200,
						"enablehscroll" : 1,
						"enablevscroll" : 1,
						"devicewidth" : 0.0,
						"description" : "",
						"digest" : "",
						"tags" : "",
						"style" : "",
						"subpatcher_template" : "",
						"showontab" : 1,
						"assistshowspatchername" : 0,
						"boxes" : [  ],
						"lines" : [  ]
					}
,
					"patching_rect" : [ 495.0, 230.0, 25.0, 22.0 ],
					"saved_object_attributes" : 					{
						"description" : "",
						"digest" : "",
						"globalpatchername" : "",
						"tags" : ""
					}
,
					"text" : "p ?"
				}

			}
, 			{
				"box" : 				{
					"id" : "obj-1",
					"maxclass" : "newobj",
					"numinlets" : 0,
					"numoutlets" : 0,
					"patcher" : 					{
						"fileversion" : 1,
						"appversion" : 						{
							"major" : 8,
							"minor" : 3,
							"revision" : 0,
							"architecture" : "x64",
							"modernui" : 1
						}
,
						"classnamespace" : "box",
						"rect" : [ 34.0, 113.0, 652.0, 761.0 ],
						"bglocked" : 0,
						"openinpresentation" : 0,
						"default_fontsize" : 13.0,
						"default_fontface" : 0,
						"default_fontname" : "Arial",
						"gridonopen" : 2,
						"gridsize" : [ 15.0, 15.0 ],
						"gridsnaponopen" : 2,
						"objectsnaponopen" : 1,
						"statusbarvisible" : 2,
						"toolbarvisible" : 1,
						"lefttoolbarpinned" : 0,
						"toptoolbarpinned" : 0,
						"righttoolbarpinned" : 0,
						"bottomtoolbarpinned" : 0,
						"toolbars_unpinned_last_save" : 0,
						"tallnewobj" : 0,
						"boxanimatetime" : 200,
						"enablehscroll" : 1,
						"enablevscroll" : 1,
						"devicewidth" : 0.0,
						"description" : "",
						"digest" : "",
						"tags" : "",
						"style" : "",
						"subpatcher_template" : "",
						"showontab" : 1,
						"assistshowspatchername" : 0,
						"boxes" : [ 							{
								"box" : 								{
									"id" : "obj-5",
									"linecount" : 3,
									"maxclass" : "comment",
									"numinlets" : 1,
									"numoutlets" : 0,
									"patching_rect" : [ 15.0, 92.0, 510.0, 50.0 ],
									"text" : "In this example, fl.lookup~ is used to 'up-sample' an input frame. This is done by using a fixed frame of 4096 samples on a table of 10 values. Interpolation is handled inside the fl.lookup~ object."
								}

							}
, 							{
								"box" : 								{
									"id" : "obj-2",
									"local" : 1,
									"maxclass" : "ezdac~",
									"numinlets" : 2,
									"numoutlets" : 0,
									"patching_rect" : [ 585.0, 700.0, 45.0, 45.0 ]
								}

							}
, 							{
								"box" : 								{
									"arrows" : 1,
									"border" : 4.0,
									"id" : "obj-1",
									"maxclass" : "live.line",
									"numinlets" : 1,
									"numoutlets" : 0,
									"patching_rect" : [ 254.07049560546875, 212.625, 55.25, 17.75 ]
								}

							}
, 							{
								"box" : 								{
									"id" : "obj-112",
									"linecount" : 3,
									"maxclass" : "comment",
									"numinlets" : 1,
									"numoutlets" : 0,
									"patching_rect" : [ 254.07049560546875, 674.5, 250.0, 50.0 ],
									"text" : "fl.lookup~ also has three scale modes. The lookup frame can be mapped to samples, normalised and bipolar values."
								}

							}
, 							{
								"box" : 								{
									"arrows" : 1,
									"border" : 4.0,
									"id" : "obj-107",
									"maxclass" : "live.line",
									"numinlets" : 1,
									"numoutlets" : 0,
									"patching_rect" : [ 170.0, 574.0, 52.0, 21.25 ]
								}

							}
, 							{
								"box" : 								{
									"id" : "obj-108",
									"linecount" : 2,
									"maxclass" : "comment",
									"numinlets" : 1,
									"numoutlets" : 0,
									"patching_rect" : [ 228.0, 565.375, 350.0, 36.0 ],
									"text" : "Lookup the 10 values and interpolate 4096 points between them. Interpolation types can be changed with /interp."
								}

							}
, 							{
								"box" : 								{
									"arrows" : 1,
									"border" : 4.0,
									"id" : "obj-105",
									"maxclass" : "live.line",
									"numinlets" : 1,
									"numoutlets" : 0,
									"patching_rect" : [ 75.0, 498.5, 75.0, 19.5 ]
								}

							}
, 							{
								"box" : 								{
									"id" : "obj-106",
									"maxclass" : "comment",
									"numinlets" : 1,
									"numoutlets" : 0,
									"patching_rect" : [ 152.0, 496.5, 352.0, 21.0 ],
									"text" : "Multiply the 0 - 1 values by one less than the lookup length."
								}

							}
, 							{
								"box" : 								{
									"arrows" : 1,
									"border" : 4.0,
									"id" : "obj-103",
									"maxclass" : "live.line",
									"numinlets" : 1,
									"numoutlets" : 0,
									"patching_rect" : [ 383.75, 309.125, 55.25, 17.75 ]
								}

							}
, 							{
								"box" : 								{
									"id" : "obj-104",
									"maxclass" : "comment",
									"numinlets" : 1,
									"numoutlets" : 0,
									"patching_rect" : [ 441.0, 304.5, 117.0, 21.0 ],
									"text" : "Generate a table"
								}

							}
, 							{
								"box" : 								{
									"arrows" : 1,
									"border" : 4.0,
									"id" : "obj-96",
									"maxclass" : "live.line",
									"numinlets" : 1,
									"numoutlets" : 0,
									"patching_rect" : [ 114.875, 454.0, 40.25, 18.0 ]
								}

							}
, 							{
								"box" : 								{
									"id" : "obj-95",
									"maxclass" : "comment",
									"numinlets" : 1,
									"numoutlets" : 0,
									"patching_rect" : [ 158.125, 452.0, 273.0, 21.0 ],
									"text" : "Subtract 1 from the length of the lookup frame"
								}

							}
, 							{
								"box" : 								{
									"id" : "obj-94",
									"linecount" : 2,
									"maxclass" : "comment",
									"numinlets" : 1,
									"numoutlets" : 0,
									"patching_rect" : [ 311.32049560546875, 203.5, 266.0, 36.0 ],
									"text" : "Generate a frame containing ramped values from 0 - 1 with 4096 discrete points."
								}

							}
, 							{
								"box" : 								{
									"fontsize" : 9.0,
									"hidden" : 1,
									"id" : "obj-89",
									"linecount" : 2,
									"maxclass" : "newobj",
									"numinlets" : 1,
									"numoutlets" : 1,
									"outlettype" : [ "" ],
									"patching_rect" : [ 145.875, 255.0, 236.0, 29.0 ],
									"text" : "loadmess 0.588235 0.694118 0.788235 0.470588 0.670588 0.729412 0.247059 0.341176 0.423529 0."
								}

							}
, 							{
								"box" : 								{
									"candicane2" : [ 0.0, 0.533333, 0.168627, 1.0 ],
									"candycane" : 2,
									"contdata" : 1,
									"ghostbar" : 90,
									"id" : "obj-86",
									"maxclass" : "multislider",
									"numinlets" : 1,
									"numoutlets" : 2,
									"outlettype" : [ "", "" ],
									"parameter_enable" : 0,
									"patching_rect" : [ 145.875, 275.875, 236.0, 85.0 ],
									"setminmax" : [ 0.0, 1.0 ],
									"size" : 10
								}

							}
, 							{
								"box" : 								{
									"id" : "obj-85",
									"maxclass" : "newobj",
									"numinlets" : 1,
									"numoutlets" : 1,
									"outlettype" : [ "" ],
									"patching_rect" : [ 53.0, 405.0, 77.0, 23.0 ],
									"text" : "fl.frommax~"
								}

							}
, 							{
								"box" : 								{
									"fontsize" : 13.0,
									"id" : "obj-44",
									"maxclass" : "newobj",
									"numinlets" : 1,
									"numoutlets" : 1,
									"outlettype" : [ "" ],
									"patcher" : 									{
										"fileversion" : 1,
										"appversion" : 										{
											"major" : 8,
											"minor" : 3,
											"revision" : 0,
											"architecture" : "x64",
											"modernui" : 1
										}
,
										"classnamespace" : "box",
										"rect" : [ 59.0, 103.0, 640.0, 480.0 ],
										"bglocked" : 0,
										"openinpresentation" : 0,
										"default_fontsize" : 12.0,
										"default_fontface" : 0,
										"default_fontname" : "Arial",
										"gridonopen" : 1,
										"gridsize" : [ 15.0, 15.0 ],
										"gridsnaponopen" : 1,
										"objectsnaponopen" : 1,
										"statusbarvisible" : 2,
										"toolbarvisible" : 1,
										"lefttoolbarpinned" : 0,
										"toptoolbarpinned" : 0,
										"righttoolbarpinned" : 0,
										"bottomtoolbarpinned" : 0,
										"toolbars_unpinned_last_save" : 0,
										"tallnewobj" : 0,
										"boxanimatetime" : 200,
										"enablehscroll" : 1,
										"enablevscroll" : 1,
										"devicewidth" : 0.0,
										"description" : "",
										"digest" : "",
										"tags" : "",
										"style" : "",
										"subpatcher_template" : "default",
										"assistshowspatchername" : 0,
										"boxes" : [ 											{
												"box" : 												{
													"id" : "obj-31",
													"maxclass" : "newobj",
													"numinlets" : 2,
													"numoutlets" : 1,
													"outlettype" : [ "" ],
													"patching_rect" : [ 12.0, 82.333336000000003, 71.0, 22.0 ],
													"text" : "fl.minus~ 1"
												}

											}
, 											{
												"box" : 												{
													"id" : "obj-30",
													"maxclass" : "newobj",
													"numinlets" : 1,
													"numoutlets" : 1,
													"outlettype" : [ "" ],
													"patching_rect" : [ 12.0, 47.333336000000003, 62.0, 22.0 ],
													"text" : "fl.length~"
												}

											}
, 											{
												"box" : 												{
													"comment" : "",
													"id" : "obj-42",
													"index" : 1,
													"maxclass" : "inlet",
													"numinlets" : 0,
													"numoutlets" : 1,
													"outlettype" : [ "" ],
													"patching_rect" : [ 12.0, 12.0, 30.0, 30.0 ]
												}

											}
, 											{
												"box" : 												{
													"comment" : "",
													"id" : "obj-43",
													"index" : 1,
													"maxclass" : "outlet",
													"numinlets" : 1,
													"numoutlets" : 0,
													"patching_rect" : [ 12.0, 117.333327999999995, 30.0, 30.0 ]
												}

											}
 ],
										"lines" : [ 											{
												"patchline" : 												{
													"destination" : [ "obj-31", 0 ],
													"source" : [ "obj-30", 0 ]
												}

											}
, 											{
												"patchline" : 												{
													"destination" : [ "obj-43", 0 ],
													"source" : [ "obj-31", 0 ]
												}

											}
, 											{
												"patchline" : 												{
													"destination" : [ "obj-30", 0 ],
													"source" : [ "obj-42", 0 ]
												}

											}
 ]
									}
,
									"patching_rect" : [ 53.0, 450.0, 59.0, 23.0 ],
									"saved_object_attributes" : 									{
										"description" : "",
										"digest" : "",
										"globalpatchername" : "",
										"tags" : ""
									}
,
									"text" : "p len-1"
								}

							}
, 							{
								"box" : 								{
									"id" : "obj-69",
									"maxclass" : "newobj",
									"numinlets" : 2,
									"numoutlets" : 1,
									"outlettype" : [ "" ],
									"patching_rect" : [ 15.0, 495.0, 57.0, 23.0 ],
									"text" : "fl.*~"
								}

							}
, 							{
								"box" : 								{
									"id" : "obj-68",
									"maxclass" : "newobj",
									"numinlets" : 1,
									"numoutlets" : 1,
									"outlettype" : [ "" ],
									"patching_rect" : [ 15.0, 165.0, 75.0, 23.0 ],
									"text" : "fl.perblock~"
								}

							}
, 							{
								"box" : 								{
									"id" : "obj-66",
									"maxclass" : "newobj",
									"numinlets" : 2,
									"numoutlets" : 1,
									"outlettype" : [ "" ],
									"patching_rect" : [ 15.0, 210.0, 236.0, 23.0 ],
									"text" : "fl.ramp~ /scale normalised /length 4096"
								}

							}
, 							{
								"box" : 								{
									"id" : "obj-58",
									"maxclass" : "newobj",
									"numinlets" : 1,
									"numoutlets" : 1,
									"outlettype" : [ "" ],
									"patching_rect" : [ 15.0, 615.0, 62.0, 23.0 ],
									"text" : "fl.tomax~"
								}

							}
, 							{
								"box" : 								{
									"candicane2" : [ 0.141176470588235, 0.352941176470588, 0.172549019607843, 1.0 ],
									"ghostbar" : 100,
									"id" : "obj-46",
									"ignoreclick" : 1,
									"maxclass" : "multislider",
									"numinlets" : 1,
									"numoutlets" : 2,
									"outlettype" : [ "", "" ],
									"parameter_enable" : 0,
									"patching_rect" : [ 15.0, 660.0, 236.0, 85.0 ],
									"setminmax" : [ 0.0, 1.0 ],
									"size" : 4096
								}

							}
, 							{
								"box" : 								{
									"color" : [ 0.92549, 0.364706, 0.341176, 1.0 ],
									"id" : "obj-37",
									"maxclass" : "newobj",
									"numinlets" : 3,
									"numoutlets" : 1,
									"outlettype" : [ "" ],
									"patching_rect" : [ 15.0, 570.0, 149.0, 23.0 ],
									"text" : "fl.lookup~ /interp bspline"
								}

							}
, 							{
								"box" : 								{
									"border" : 0,
									"filename" : "fl.helpname.js",
									"id" : "obj-3",
									"ignoreclick" : 1,
									"jsarguments" : [ "fl.lookup~" ],
									"maxclass" : "jsui",
									"numinlets" : 1,
									"numoutlets" : 1,
									"outlettype" : [ "" ],
									"parameter_enable" : 0,
									"patching_rect" : [ 15.0, 15.0, 435.0, 75.0 ]
								}

							}
 ],
						"lines" : [ 							{
								"patchline" : 								{
									"destination" : [ "obj-58", 0 ],
									"source" : [ "obj-37", 0 ]
								}

							}
, 							{
								"patchline" : 								{
									"destination" : [ "obj-69", 1 ],
									"source" : [ "obj-44", 0 ]
								}

							}
, 							{
								"patchline" : 								{
									"destination" : [ "obj-46", 0 ],
									"source" : [ "obj-58", 0 ]
								}

							}
, 							{
								"patchline" : 								{
									"destination" : [ "obj-69", 0 ],
									"midpoints" : [ 24.5, 234.0, 24.5, 234.0 ],
									"order" : 1,
									"source" : [ "obj-66", 0 ]
								}

							}
, 							{
								"patchline" : 								{
									"destination" : [ "obj-85", 0 ],
									"midpoints" : [ 24.5, 378.0, 62.5, 378.0 ],
									"order" : 0,
									"source" : [ "obj-66", 0 ]
								}

							}
, 							{
								"patchline" : 								{
									"destination" : [ "obj-66", 0 ],
									"midpoints" : [ 24.5, 189.0, 24.5, 189.0 ],
									"source" : [ "obj-68", 0 ]
								}

							}
, 							{
								"patchline" : 								{
									"destination" : [ "obj-37", 0 ],
									"midpoints" : [ 24.5, 519.0, 24.5, 519.0 ],
									"source" : [ "obj-69", 0 ]
								}

							}
, 							{
								"patchline" : 								{
									"destination" : [ "obj-37", 1 ],
									"midpoints" : [ 62.5, 436.0, 525.0, 436.0, 525.0, 555.0, 89.5, 555.0 ],
									"order" : 0,
									"source" : [ "obj-85", 0 ]
								}

							}
, 							{
								"patchline" : 								{
									"destination" : [ "obj-44", 0 ],
									"midpoints" : [ 62.5, 438.5, 62.5, 438.5 ],
									"order" : 1,
									"source" : [ "obj-85", 0 ]
								}

							}
, 							{
								"patchline" : 								{
									"destination" : [ "obj-85", 0 ],
									"midpoints" : [ 155.375, 378.0, 62.5, 378.0 ],
									"source" : [ "obj-86", 0 ]
								}

							}
, 							{
								"patchline" : 								{
									"destination" : [ "obj-86", 0 ],
									"hidden" : 1,
									"source" : [ "obj-89", 0 ]
								}

							}
 ],
						"styles" : [ 							{
								"name" : "newobjBlue-1",
								"default" : 								{
									"accentcolor" : [ 0.317647, 0.654902, 0.976471, 1.0 ]
								}
,
								"parentstyle" : "",
								"multi" : 0
							}
, 							{
								"name" : "newobjYellow-1",
								"default" : 								{
									"accentcolor" : [ 0.82517, 0.78181, 0.059545, 1.0 ],
									"fontsize" : [ 12.059008 ]
								}
,
								"parentstyle" : "",
								"multi" : 0
							}
, 							{
								"name" : "numberGold-1",
								"default" : 								{
									"accentcolor" : [ 0.764706, 0.592157, 0.101961, 1.0 ]
								}
,
								"parentstyle" : "",
								"multi" : 0
							}
 ]
					}
,
					"patching_rect" : [ 271.0, 230.0, 47.0, 22.0 ],
					"saved_object_attributes" : 					{
						"description" : "",
						"digest" : "",
						"fontsize" : 13.0,
						"globalpatchername" : "",
						"tags" : ""
					}
,
					"text" : "p basic"
				}

			}
 ],
		"lines" : [  ],
		"parameters" : 		{
			"obj-3::obj-25" : [ "live.dial", "Length", 0 ],
			"obj-4::obj-6" : [ "live.tab[1]", "live.tab", 0 ],
			"parameterbanks" : 			{

			}
,
			"inherited_shortname" : 1
		}
,
		"dependency_cache" : [ 			{
				"name" : "fl.frommax~.mxo",
				"type" : "iLaX"
			}
, 			{
				"name" : "fl.helpname.js",
				"bootpath" : "~/Documents/Development/FrameLib/Packaging/Max/FrameLib/misc",
				"patcherrelativepath" : "../../../../../Packaging/Max/FrameLib/misc",
				"type" : "TEXT",
				"implicit" : 1
			}
, 			{
				"name" : "fl.interval~.mxo",
				"type" : "iLaX"
			}
, 			{
				"name" : "fl.length~.mxo",
				"type" : "iLaX"
			}
, 			{
				"name" : "fl.lookup~.mxo",
				"type" : "iLaX"
			}
, 			{
				"name" : "fl.map~.mxo",
				"type" : "iLaX"
			}
, 			{
				"name" : "fl.minus~.mxo",
				"type" : "iLaX"
			}
, 			{
				"name" : "fl.perblock~.mxo",
				"type" : "iLaX"
			}
, 			{
				"name" : "fl.ramp~.mxo",
				"type" : "iLaX"
			}
, 			{
				"name" : "fl.times~.mxo",
				"type" : "iLaX"
			}
, 			{
				"name" : "fl.tomax~.mxo",
				"type" : "iLaX"
			}
 ],
		"autosave" : 0
	}

}
