{
	"patcher" : 	{
		"fileversion" : 1,
		"appversion" : 		{
			"major" : 8,
			"minor" : 1,
			"revision" : 5,
			"architecture" : "x64",
			"modernui" : 1
		}
,
		"classnamespace" : "box",
		"rect" : [ 34.0, 79.0, 860.0, 879.0 ],
		"bglocked" : 0,
		"openinpresentation" : 0,
		"default_fontsize" : 11.0,
		"default_fontface" : 0,
		"default_fontname" : "Arial",
		"gridonopen" : 1,
		"gridsize" : [ 15.0, 15.0 ],
		"gridsnaponopen" : 1,
		"objectsnaponopen" : 1,
		"statusbarvisible" : 2,
		"toolbarvisible" : 1,
		"lefttoolbarpinned" : 0,
		"toptoolbarpinned" : 0,
		"righttoolbarpinned" : 0,
		"bottomtoolbarpinned" : 0,
		"toolbars_unpinned_last_save" : 0,
		"tallnewobj" : 0,
		"boxanimatetime" : 200,
		"enablehscroll" : 1,
		"enablevscroll" : 1,
		"devicewidth" : 0.0,
		"description" : "",
		"digest" : "",
		"tags" : "",
		"style" : "",
		"subpatcher_template" : "default",
		"showrootpatcherontab" : 0,
		"showontab" : 0,
		"assistshowspatchername" : 0,
		"boxes" : [ 			{
				"box" : 				{
					"id" : "obj-2",
					"maxclass" : "newobj",
					"numinlets" : 0,
					"numoutlets" : 0,
					"patcher" : 					{
						"fileversion" : 1,
						"appversion" : 						{
							"major" : 8,
							"minor" : 1,
							"revision" : 5,
							"architecture" : "x64",
							"modernui" : 1
						}
,
						"classnamespace" : "box",
						"rect" : [ 34.0, 105.0, 860.0, 853.0 ],
						"bglocked" : 0,
						"openinpresentation" : 0,
						"default_fontsize" : 12.0,
						"default_fontface" : 0,
						"default_fontname" : "Arial",
						"gridonopen" : 1,
						"gridsize" : [ 15.0, 15.0 ],
						"gridsnaponopen" : 1,
						"objectsnaponopen" : 1,
						"statusbarvisible" : 2,
						"toolbarvisible" : 1,
						"lefttoolbarpinned" : 0,
						"toptoolbarpinned" : 0,
						"righttoolbarpinned" : 0,
						"bottomtoolbarpinned" : 0,
						"toolbars_unpinned_last_save" : 0,
						"tallnewobj" : 0,
						"boxanimatetime" : 200,
						"enablehscroll" : 1,
						"enablevscroll" : 1,
						"devicewidth" : 0.0,
						"description" : "",
						"digest" : "",
						"tags" : "",
						"style" : "",
						"subpatcher_template" : "default",
						"showontab" : 1,
						"assistshowspatchername" : 0,
						"title" : "Multi-resolution Basics",
						"boxes" : [ 							{
								"box" : 								{
									"fontname" : "Arial Black",
									"id" : "obj-44",
									"linecount" : 6,
									"maxclass" : "comment",
									"numinlets" : 1,
									"numoutlets" : 0,
									"patching_rect" : [ 438.75, 274.5, 165.0, 108.0 ],
									"presentation_linecount" : 6,
									"text" : "FROM ALEX - should explain here that the gate works faster on higher frequencies but you get the resolution at low freqs"
								}

							}
, 							{
								"box" : 								{
									"fontname" : "Arial Black",
									"id" : "obj-42",
									"linecount" : 4,
									"maxclass" : "comment",
									"numinlets" : 1,
									"numoutlets" : 0,
									"patching_rect" : [ 488.0, 395.5, 165.0, 74.0 ],
									"text" : "FROM ALEX - the FFT window size (N) is not the size of frames here - these are N/2+1"
								}

							}
, 							{
								"box" : 								{
									"id" : "obj-16",
									"maxclass" : "comment",
									"numinlets" : 1,
									"numoutlets" : 0,
									"patching_rect" : [ 282.25, 601.0, 260.0, 20.0 ],
									"text" : "Multiply by a filter per stream to filter into bands"
								}

							}
, 							{
								"box" : 								{
									"bgmode" : 0,
									"border" : 0,
									"clickthrough" : 0,
									"enablehscroll" : 0,
									"enablevscroll" : 0,
									"id" : "obj-8",
									"lockeddragscroll" : 0,
									"maxclass" : "bpatcher",
									"name" : "fl-mono-h.maxpat",
									"numinlets" : 1,
									"numoutlets" : 1,
									"offset" : [ 0.0, 0.0 ],
									"outlettype" : [ "signal" ],
									"patching_rect" : [ 3.75, 792.0, 94.0, 40.0 ],
									"viewvisibility" : 1
								}

							}
, 							{
								"box" : 								{
									"id" : "obj-7",
									"maxclass" : "newobj",
									"numinlets" : 1,
									"numoutlets" : 1,
									"outlettype" : [ "" ],
									"patcher" : 									{
										"fileversion" : 1,
										"appversion" : 										{
											"major" : 8,
											"minor" : 1,
											"revision" : 5,
											"architecture" : "x64",
											"modernui" : 1
										}
,
										"classnamespace" : "box",
										"rect" : [ 59.0, 104.0, 822.0, 340.0 ],
										"bglocked" : 0,
										"openinpresentation" : 0,
										"default_fontsize" : 12.0,
										"default_fontface" : 0,
										"default_fontname" : "Arial",
										"gridonopen" : 1,
										"gridsize" : [ 15.0, 15.0 ],
										"gridsnaponopen" : 1,
										"objectsnaponopen" : 1,
										"statusbarvisible" : 2,
										"toolbarvisible" : 1,
										"lefttoolbarpinned" : 0,
										"toptoolbarpinned" : 0,
										"righttoolbarpinned" : 0,
										"bottomtoolbarpinned" : 0,
										"toolbars_unpinned_last_save" : 0,
										"tallnewobj" : 0,
										"boxanimatetime" : 200,
										"enablehscroll" : 1,
										"enablevscroll" : 1,
										"devicewidth" : 0.0,
										"description" : "",
										"digest" : "",
										"tags" : "",
										"style" : "",
										"subpatcher_template" : "default",
										"assistshowspatchername" : 0,
										"boxes" : [ 											{
												"box" : 												{
													"id" : "obj-33",
													"maxclass" : "comment",
													"numinlets" : 1,
													"numoutlets" : 0,
													"patching_rect" : [ 95.5, 278.0, 504.0, 20.0 ],
													"text" : "Here we design 4 filters to filter each FFT into bands (shorter FFTs for the higher frequencies)"
												}

											}
, 											{
												"box" : 												{
													"id" : "obj-26",
													"maxclass" : "comment",
													"numinlets" : 1,
													"numoutlets" : 0,
													"patching_rect" : [ 420.0, 218.0, 210.0, 20.0 ],
													"text" : "Pack each filter to the relevant stream"
												}

											}
, 											{
												"box" : 												{
													"id" : "obj-25",
													"maxclass" : "comment",
													"numinlets" : 1,
													"numoutlets" : 0,
													"patching_rect" : [ 79.0, 229.0, 234.0, 20.0 ],
													"text" : "Multiply to combine with to the gating filter"
												}

											}
, 											{
												"box" : 												{
													"id" : "obj-23",
													"maxclass" : "newobj",
													"numinlets" : 2,
													"numoutlets" : 1,
													"outlettype" : [ "" ],
													"patching_rect" : [ 449.0, 139.0, 39.0, 22.0 ],
													"text" : "fl.*~"
												}

											}
, 											{
												"box" : 												{
													"id" : "obj-22",
													"maxclass" : "comment",
													"numinlets" : 1,
													"numoutlets" : 0,
													"patching_rect" : [ 646.0, 43.0, 135.0, 20.0 ],
													"presentation_linecount" : 2,
													"text" : "Highpass Linkwitz-Riley"
												}

											}
, 											{
												"box" : 												{
													"id" : "obj-21",
													"maxclass" : "comment",
													"numinlets" : 1,
													"numoutlets" : 0,
													"patching_rect" : [ 455.0, 43.0, 126.0, 20.0 ],
													"presentation_linecount" : 2,
													"text" : "Flat-top Linkwitz-Riley"
												}

											}
, 											{
												"box" : 												{
													"id" : "obj-20",
													"maxclass" : "comment",
													"numinlets" : 1,
													"numoutlets" : 0,
													"patching_rect" : [ 289.0, 43.0, 126.0, 20.0 ],
													"presentation_linecount" : 2,
													"text" : "Flat-top Linkwitz-Riley"
												}

											}
, 											{
												"box" : 												{
													"id" : "obj-19",
													"maxclass" : "comment",
													"numinlets" : 1,
													"numoutlets" : 0,
													"patching_rect" : [ 114.0, 43.0, 133.0, 20.0 ],
													"text" : "Lowpass Linkwitz-Riley"
												}

											}
, 											{
												"box" : 												{
													"id" : "obj-17",
													"maxclass" : "newobj",
													"numinlets" : 2,
													"numoutlets" : 1,
													"outlettype" : [ "" ],
													"patching_rect" : [ 269.0, 139.0, 39.0, 22.0 ],
													"text" : "fl.*~"
												}

											}
, 											{
												"box" : 												{
													"id" : "obj-11",
													"maxclass" : "newobj",
													"numinlets" : 0,
													"numoutlets" : 1,
													"outlettype" : [ "" ],
													"patching_rect" : [ 469.0, 106.0, 146.0, 22.0 ],
													"text" : "fl.spectral_lpf 513 0.16 12"
												}

											}
, 											{
												"box" : 												{
													"id" : "obj-10",
													"maxclass" : "newobj",
													"numinlets" : 0,
													"numoutlets" : 1,
													"outlettype" : [ "" ],
													"patching_rect" : [ 289.0, 106.0, 153.0, 22.0 ],
													"text" : "fl.spectral_lpf 1025 0.04 12"
												}

											}
, 											{
												"box" : 												{
													"id" : "obj-9",
													"maxclass" : "newobj",
													"numinlets" : 0,
													"numoutlets" : 1,
													"outlettype" : [ "" ],
													"patching_rect" : [ 629.0, 75.0, 150.0, 22.0 ],
													"text" : "fl.spectral_hpf 257 0.16 12"
												}

											}
, 											{
												"box" : 												{
													"id" : "obj-8",
													"maxclass" : "newobj",
													"numinlets" : 0,
													"numoutlets" : 1,
													"outlettype" : [ "" ],
													"patching_rect" : [ 449.0, 75.0, 150.0, 22.0 ],
													"text" : "fl.spectral_hpf 513 0.04 12"
												}

											}
, 											{
												"box" : 												{
													"id" : "obj-7",
													"maxclass" : "newobj",
													"numinlets" : 0,
													"numoutlets" : 1,
													"outlettype" : [ "" ],
													"patching_rect" : [ 269.0, 75.0, 157.0, 22.0 ],
													"text" : "fl.spectral_hpf 1025 0.01 12"
												}

											}
, 											{
												"box" : 												{
													"id" : "obj-6",
													"maxclass" : "newobj",
													"numinlets" : 0,
													"numoutlets" : 1,
													"outlettype" : [ "" ],
													"patching_rect" : [ 89.0, 75.0, 153.0, 22.0 ],
													"text" : "fl.spectral_lpf 2049 0.01 12"
												}

											}
, 											{
												"box" : 												{
													"id" : "obj-5",
													"maxclass" : "newobj",
													"numinlets" : 4,
													"numoutlets" : 1,
													"outlettype" : [ "" ],
													"patching_rect" : [ 89.0, 188.0, 559.0, 22.0 ],
													"text" : "fl.pack~ 4"
												}

											}
, 											{
												"box" : 												{
													"id" : "obj-4",
													"maxclass" : "newobj",
													"numinlets" : 2,
													"numoutlets" : 1,
													"outlettype" : [ "" ],
													"patching_rect" : [ 35.0, 227.0, 30.0, 22.0 ],
													"text" : "fl.*~"
												}

											}
, 											{
												"box" : 												{
													"comment" : "",
													"id" : "obj-3",
													"index" : 1,
													"maxclass" : "outlet",
													"numinlets" : 1,
													"numoutlets" : 0,
													"patching_rect" : [ 35.0, 273.0, 30.0, 30.0 ]
												}

											}
, 											{
												"box" : 												{
													"comment" : "",
													"id" : "obj-1",
													"index" : 1,
													"maxclass" : "inlet",
													"numinlets" : 0,
													"numoutlets" : 1,
													"outlettype" : [ "" ],
													"patching_rect" : [ 35.0, 62.0, 30.0, 30.0 ]
												}

											}
 ],
										"lines" : [ 											{
												"patchline" : 												{
													"destination" : [ "obj-4", 0 ],
													"source" : [ "obj-1", 0 ]
												}

											}
, 											{
												"patchline" : 												{
													"destination" : [ "obj-17", 1 ],
													"source" : [ "obj-10", 0 ]
												}

											}
, 											{
												"patchline" : 												{
													"destination" : [ "obj-23", 1 ],
													"source" : [ "obj-11", 0 ]
												}

											}
, 											{
												"patchline" : 												{
													"destination" : [ "obj-5", 1 ],
													"source" : [ "obj-17", 0 ]
												}

											}
, 											{
												"patchline" : 												{
													"destination" : [ "obj-5", 2 ],
													"source" : [ "obj-23", 0 ]
												}

											}
, 											{
												"patchline" : 												{
													"destination" : [ "obj-3", 0 ],
													"source" : [ "obj-4", 0 ]
												}

											}
, 											{
												"patchline" : 												{
													"destination" : [ "obj-4", 1 ],
													"midpoints" : [ 98.5, 218.0, 55.5, 218.0 ],
													"source" : [ "obj-5", 0 ]
												}

											}
, 											{
												"patchline" : 												{
													"destination" : [ "obj-5", 0 ],
													"source" : [ "obj-6", 0 ]
												}

											}
, 											{
												"patchline" : 												{
													"destination" : [ "obj-17", 0 ],
													"source" : [ "obj-7", 0 ]
												}

											}
, 											{
												"patchline" : 												{
													"destination" : [ "obj-23", 0 ],
													"source" : [ "obj-8", 0 ]
												}

											}
, 											{
												"patchline" : 												{
													"destination" : [ "obj-5", 3 ],
													"source" : [ "obj-9", 0 ]
												}

											}
 ]
									}
,
									"patching_rect" : [ 128.5, 601.0, 146.0, 22.0 ],
									"saved_object_attributes" : 									{
										"description" : "",
										"digest" : "",
										"globalpatchername" : "",
										"tags" : ""
									}
,
									"text" : "p multi_res_band_filtering"
								}

							}
, 							{
								"box" : 								{
									"id" : "obj-14",
									"maxclass" : "newobj",
									"numinlets" : 2,
									"numoutlets" : 1,
									"outlettype" : [ "float" ],
									"patching_rect" : [ 212.5, 498.5, 42.0, 22.0 ],
									"text" : "* 0.01"
								}

							}
, 							{
								"box" : 								{
									"id" : "obj-17",
									"maxclass" : "comment",
									"numinlets" : 1,
									"numoutlets" : 0,
									"patching_rect" : [ 151.75, 651.5, 295.0, 20.0 ],
									"text" : "Multiply each real/imaginary pair by the filtering above"
								}

							}
, 							{
								"box" : 								{
									"fontname" : "Arial",
									"fontsize" : 12.0,
									"id" : "obj-12",
									"maxclass" : "newobj",
									"numinlets" : 2,
									"numoutlets" : 1,
									"outlettype" : [ "" ],
									"patching_rect" : [ 91.5, 650.5, 56.0, 22.0 ],
									"text" : "fl.*~"
								}

							}
, 							{
								"box" : 								{
									"id" : "obj-10",
									"linecount" : 8,
									"maxclass" : "comment",
									"numinlets" : 1,
									"numoutlets" : 0,
									"patching_rect" : [ 376.75, 477.5, 200.0, 114.0 ],
									"text" : "Threshold the amplitudes. Calculating the hypotenuse returns the magnitude of bin as a frame equal to the fft window size. The fl.>~ performs its logical operation on each value in the frame determining if the magnitude is greater than the threshold value."
								}

							}
, 							{
								"box" : 								{
									"id" : "obj-46",
									"maxclass" : "comment",
									"numinlets" : 1,
									"numoutlets" : 0,
									"patching_rect" : [ 118.75, 415.5, 87.0, 20.0 ],
									"text" : "Calculate FFT"
								}

							}
, 							{
								"box" : 								{
									"args" : [ "@file", "rainstick.aif", "@loop", 1, "@vol", 0 ],
									"bgmode" : 0,
									"border" : 0,
									"clickthrough" : 0,
									"enablehscroll" : 0,
									"enablevscroll" : 0,
									"id" : "obj-23",
									"lockeddragscroll" : 0,
									"maxclass" : "bpatcher",
									"name" : "demosound.maxpat",
									"numinlets" : 0,
									"numoutlets" : 1,
									"offset" : [ 0.0, 0.0 ],
									"outlettype" : [ "signal" ],
									"patching_rect" : [ 3.75, 246.0, 225.0, 95.0 ],
									"viewvisibility" : 1
								}

							}
, 							{
								"box" : 								{
									"id" : "obj-38",
									"maxclass" : "comment",
									"numinlets" : 1,
									"numoutlets" : 0,
									"patching_rect" : [ 207.75, 377.5, 140.0, 20.0 ],
									"text" : "Window all four streams"
								}

							}
, 							{
								"box" : 								{
									"id" : "obj-34",
									"maxclass" : "comment",
									"numinlets" : 1,
									"numoutlets" : 0,
									"patching_rect" : [ 112.75, 687.5, 305.0, 20.0 ],
									"text" : "Inverse FFT calculated and each stream is normalised."
								}

							}
, 							{
								"box" : 								{
									"id" : "obj-32",
									"maxclass" : "comment",
									"numinlets" : 1,
									"numoutlets" : 0,
									"patching_rect" : [ 66.75, 722.5, 150.0, 20.0 ],
									"text" : "Window and scale frames"
								}

							}
, 							{
								"box" : 								{
									"id" : "obj-30",
									"maxclass" : "newobj",
									"numinlets" : 1,
									"numoutlets" : 1,
									"outlettype" : [ "" ],
									"patcher" : 									{
										"fileversion" : 1,
										"appversion" : 										{
											"major" : 8,
											"minor" : 1,
											"revision" : 5,
											"architecture" : "x64",
											"modernui" : 1
										}
,
										"classnamespace" : "box",
										"rect" : [ 59.0, 103.0, 289.0, 245.0 ],
										"bglocked" : 0,
										"openinpresentation" : 0,
										"default_fontsize" : 12.0,
										"default_fontface" : 0,
										"default_fontname" : "Arial",
										"gridonopen" : 1,
										"gridsize" : [ 15.0, 15.0 ],
										"gridsnaponopen" : 1,
										"objectsnaponopen" : 1,
										"statusbarvisible" : 2,
										"toolbarvisible" : 1,
										"lefttoolbarpinned" : 0,
										"toptoolbarpinned" : 0,
										"righttoolbarpinned" : 0,
										"bottomtoolbarpinned" : 0,
										"toolbars_unpinned_last_save" : 0,
										"tallnewobj" : 0,
										"boxanimatetime" : 200,
										"enablehscroll" : 1,
										"enablevscroll" : 1,
										"devicewidth" : 0.0,
										"description" : "",
										"digest" : "",
										"tags" : "",
										"style" : "",
										"subpatcher_template" : "default",
										"assistshowspatchername" : 0,
										"boxes" : [ 											{
												"box" : 												{
													"id" : "obj-15",
													"maxclass" : "newobj",
													"numinlets" : 2,
													"numoutlets" : 1,
													"outlettype" : [ "" ],
													"patching_rect" : [ 33.0, 131.0, 56.0, 22.0 ],
													"text" : "fl.*~ 0.25"
												}

											}
, 											{
												"box" : 												{
													"id" : "obj-7",
													"maxclass" : "newobj",
													"numinlets" : 2,
													"numoutlets" : 1,
													"outlettype" : [ "" ],
													"patching_rect" : [ 33.0, 92.0, 230.0, 22.0 ],
													"text" : "fl.window~ hann /compensate reconstruct"
												}

											}
, 											{
												"box" : 												{
													"comment" : "",
													"id" : "obj-25",
													"index" : 1,
													"maxclass" : "inlet",
													"numinlets" : 0,
													"numoutlets" : 1,
													"outlettype" : [ "" ],
													"patching_rect" : [ 33.0, 32.0, 30.0, 30.0 ]
												}

											}
, 											{
												"box" : 												{
													"comment" : "",
													"id" : "obj-29",
													"index" : 1,
													"maxclass" : "outlet",
													"numinlets" : 1,
													"numoutlets" : 0,
													"patching_rect" : [ 33.0, 174.0, 30.0, 30.0 ]
												}

											}
 ],
										"lines" : [ 											{
												"patchline" : 												{
													"destination" : [ "obj-29", 0 ],
													"source" : [ "obj-15", 0 ]
												}

											}
, 											{
												"patchline" : 												{
													"destination" : [ "obj-7", 0 ],
													"source" : [ "obj-25", 0 ]
												}

											}
, 											{
												"patchline" : 												{
													"destination" : [ "obj-15", 0 ],
													"source" : [ "obj-7", 0 ]
												}

											}
 ]
									}
,
									"patching_rect" : [ 3.75, 722.5, 61.0, 22.0 ],
									"saved_object_attributes" : 									{
										"description" : "",
										"digest" : "",
										"globalpatchername" : "",
										"tags" : ""
									}
,
									"text" : "p window"
								}

							}
, 							{
								"box" : 								{
									"id" : "obj-19",
									"maxclass" : "comment",
									"numinlets" : 1,
									"numoutlets" : 0,
									"patching_rect" : [ 93.75, 760.5, 129.0, 20.0 ],
									"text" : "Split streams and filter"
								}

							}
, 							{
								"box" : 								{
									"id" : "obj-18",
									"maxclass" : "comment",
									"numinlets" : 1,
									"numoutlets" : 0,
									"patching_rect" : [ 91.75, 344.5, 298.0, 20.0 ],
									"text" : "Concatenate different streams (multi-stream packing)"
								}

							}
, 							{
								"box" : 								{
									"id" : "obj-2",
									"maxclass" : "comment",
									"numinlets" : 1,
									"numoutlets" : 0,
									"patching_rect" : [ 303.5, 469.5, 64.0, 20.0 ],
									"text" : "Threshold"
								}

							}
, 							{
								"box" : 								{
									"id" : "obj-51",
									"maxclass" : "newobj",
									"numinlets" : 1,
									"numoutlets" : 1,
									"outlettype" : [ "" ],
									"patcher" : 									{
										"fileversion" : 1,
										"appversion" : 										{
											"major" : 8,
											"minor" : 1,
											"revision" : 5,
											"architecture" : "x64",
											"modernui" : 1
										}
,
										"classnamespace" : "box",
										"rect" : [ 250.0, 420.0, 699.0, 318.0 ],
										"bglocked" : 0,
										"openinpresentation" : 0,
										"default_fontsize" : 12.0,
										"default_fontface" : 0,
										"default_fontname" : "Arial",
										"gridonopen" : 1,
										"gridsize" : [ 15.0, 15.0 ],
										"gridsnaponopen" : 1,
										"objectsnaponopen" : 1,
										"statusbarvisible" : 2,
										"toolbarvisible" : 1,
										"lefttoolbarpinned" : 0,
										"toptoolbarpinned" : 0,
										"righttoolbarpinned" : 0,
										"bottomtoolbarpinned" : 0,
										"toolbars_unpinned_last_save" : 0,
										"tallnewobj" : 0,
										"boxanimatetime" : 200,
										"enablehscroll" : 1,
										"enablevscroll" : 1,
										"devicewidth" : 0.0,
										"description" : "",
										"digest" : "",
										"tags" : "",
										"style" : "",
										"subpatcher_template" : "",
										"assistshowspatchername" : 0,
										"boxes" : [ 											{
												"box" : 												{
													"id" : "obj-2",
													"linecount" : 3,
													"maxclass" : "comment",
													"numinlets" : 1,
													"numoutlets" : 0,
													"patching_rect" : [ 30.0, 232.0, 601.0, 47.0 ],
													"text" : "This sub patch holds a group of objects which combine four independent frames into a single multi-stream container. Notice that each fl.source~ object has a different length parameter (decreasing in powers of 2). An overlap of 4 is maintained for each process. These frames are concatenated in a multi-stream by fl.pack~."
												}

											}
, 											{
												"box" : 												{
													"fontface" : 0,
													"fontname" : "Arial",
													"fontsize" : 12.0,
													"id" : "obj-3",
													"maxclass" : "newobj",
													"numinlets" : 3,
													"numoutlets" : 1,
													"outlettype" : [ "" ],
													"patching_rect" : [ 537.0, 111.0, 126.0, 22.0 ],
													"text" : "fl.source~ /length 512"
												}

											}
, 											{
												"box" : 												{
													"id" : "obj-33",
													"maxclass" : "newobj",
													"numinlets" : 4,
													"numoutlets" : 1,
													"outlettype" : [ "" ],
													"patching_rect" : [ 30.0, 151.0, 526.0, 22.0 ],
													"text" : "fl.pack~ 4"
												}

											}
, 											{
												"box" : 												{
													"fontface" : 0,
													"fontname" : "Arial",
													"fontsize" : 12.0,
													"id" : "obj-35",
													"maxclass" : "newobj",
													"numinlets" : 3,
													"numoutlets" : 1,
													"outlettype" : [ "" ],
													"patching_rect" : [ 368.0, 111.0, 132.0, 22.0 ],
													"text" : "fl.source~ /length 1024"
												}

											}
, 											{
												"box" : 												{
													"fontface" : 0,
													"fontname" : "Arial",
													"fontsize" : 12.0,
													"id" : "obj-38",
													"maxclass" : "newobj",
													"numinlets" : 3,
													"numoutlets" : 1,
													"outlettype" : [ "" ],
													"patching_rect" : [ 199.0, 111.0, 132.0, 22.0 ],
													"text" : "fl.source~ /length 2048"
												}

											}
, 											{
												"box" : 												{
													"fontface" : 0,
													"fontname" : "Arial",
													"fontsize" : 12.0,
													"id" : "obj-39",
													"maxclass" : "newobj",
													"numinlets" : 1,
													"numoutlets" : 1,
													"outlettype" : [ "" ],
													"patching_rect" : [ 590.5, 57.0, 89.0, 22.0 ],
													"text" : "fl.interval~ 128"
												}

											}
, 											{
												"box" : 												{
													"fontface" : 0,
													"fontname" : "Arial",
													"fontsize" : 12.0,
													"id" : "obj-40",
													"maxclass" : "newobj",
													"numinlets" : 1,
													"numoutlets" : 1,
													"outlettype" : [ "" ],
													"patching_rect" : [ 424.5, 57.0, 89.0, 22.0 ],
													"text" : "fl.interval~ 256"
												}

											}
, 											{
												"box" : 												{
													"fontface" : 0,
													"fontname" : "Arial",
													"fontsize" : 12.0,
													"id" : "obj-42",
													"maxclass" : "newobj",
													"numinlets" : 1,
													"numoutlets" : 1,
													"outlettype" : [ "" ],
													"patching_rect" : [ 255.5, 57.0, 89.0, 22.0 ],
													"text" : "fl.interval~ 512"
												}

											}
, 											{
												"box" : 												{
													"fontface" : 0,
													"fontname" : "Arial",
													"fontsize" : 12.0,
													"id" : "obj-43",
													"maxclass" : "newobj",
													"numinlets" : 3,
													"numoutlets" : 1,
													"outlettype" : [ "" ],
													"patching_rect" : [ 30.0, 111.0, 132.0, 22.0 ],
													"text" : "fl.source~ /length 4096"
												}

											}
, 											{
												"box" : 												{
													"fontface" : 0,
													"fontname" : "Arial",
													"fontsize" : 12.0,
													"id" : "obj-44",
													"maxclass" : "newobj",
													"numinlets" : 1,
													"numoutlets" : 1,
													"outlettype" : [ "" ],
													"patching_rect" : [ 86.5, 57.0, 96.0, 22.0 ],
													"text" : "fl.interval~ 1024"
												}

											}
, 											{
												"box" : 												{
													"comment" : "",
													"id" : "obj-48",
													"index" : 1,
													"maxclass" : "inlet",
													"numinlets" : 0,
													"numoutlets" : 1,
													"outlettype" : [ "signal" ],
													"patching_rect" : [ 30.0, 22.0, 30.0, 30.0 ]
												}

											}
, 											{
												"box" : 												{
													"comment" : "",
													"id" : "obj-50",
													"index" : 1,
													"maxclass" : "outlet",
													"numinlets" : 1,
													"numoutlets" : 0,
													"patching_rect" : [ 30.0, 195.0, 30.0, 30.0 ]
												}

											}
 ],
										"lines" : [ 											{
												"patchline" : 												{
													"destination" : [ "obj-33", 3 ],
													"source" : [ "obj-3", 0 ]
												}

											}
, 											{
												"patchline" : 												{
													"destination" : [ "obj-50", 0 ],
													"source" : [ "obj-33", 0 ]
												}

											}
, 											{
												"patchline" : 												{
													"destination" : [ "obj-33", 2 ],
													"source" : [ "obj-35", 0 ]
												}

											}
, 											{
												"patchline" : 												{
													"destination" : [ "obj-33", 1 ],
													"source" : [ "obj-38", 0 ]
												}

											}
, 											{
												"patchline" : 												{
													"destination" : [ "obj-3", 1 ],
													"source" : [ "obj-39", 0 ]
												}

											}
, 											{
												"patchline" : 												{
													"destination" : [ "obj-35", 1 ],
													"source" : [ "obj-40", 0 ]
												}

											}
, 											{
												"patchline" : 												{
													"destination" : [ "obj-38", 1 ],
													"source" : [ "obj-42", 0 ]
												}

											}
, 											{
												"patchline" : 												{
													"destination" : [ "obj-33", 0 ],
													"source" : [ "obj-43", 0 ]
												}

											}
, 											{
												"patchline" : 												{
													"destination" : [ "obj-43", 1 ],
													"source" : [ "obj-44", 0 ]
												}

											}
, 											{
												"patchline" : 												{
													"color" : [ 1.0, 0.0, 0.0, 1.0 ],
													"destination" : [ "obj-3", 0 ],
													"midpoints" : [ 39.5, 97.0, 546.5, 97.0 ],
													"order" : 0,
													"source" : [ "obj-48", 0 ]
												}

											}
, 											{
												"patchline" : 												{
													"color" : [ 1.0, 0.0, 0.0, 1.0 ],
													"destination" : [ "obj-35", 0 ],
													"midpoints" : [ 39.5, 97.0, 377.5, 97.0 ],
													"order" : 1,
													"source" : [ "obj-48", 0 ]
												}

											}
, 											{
												"patchline" : 												{
													"color" : [ 1.0, 0.0, 0.0, 1.0 ],
													"destination" : [ "obj-38", 0 ],
													"midpoints" : [ 39.5, 97.0, 208.5, 97.0 ],
													"order" : 2,
													"source" : [ "obj-48", 0 ]
												}

											}
, 											{
												"patchline" : 												{
													"color" : [ 1.0, 0.0, 0.0, 1.0 ],
													"destination" : [ "obj-43", 0 ],
													"midpoints" : [ 39.5, 55.0, 39.5, 55.0 ],
													"order" : 3,
													"source" : [ "obj-48", 0 ]
												}

											}
 ]
									}
,
									"patching_rect" : [ 3.75, 344.5, 83.0, 22.0 ],
									"saved_object_attributes" : 									{
										"description" : "",
										"digest" : "",
										"globalpatchername" : "",
										"tags" : ""
									}
,
									"text" : "p multi_res_in"
								}

							}
, 							{
								"box" : 								{
									"id" : "obj-41",
									"maxclass" : "newobj",
									"numinlets" : 1,
									"numoutlets" : 1,
									"outlettype" : [ "signal" ],
									"patcher" : 									{
										"fileversion" : 1,
										"appversion" : 										{
											"major" : 8,
											"minor" : 1,
											"revision" : 5,
											"architecture" : "x64",
											"modernui" : 1
										}
,
										"classnamespace" : "box",
										"rect" : [ 139.0, 611.0, 700.0, 251.0 ],
										"bglocked" : 0,
										"openinpresentation" : 0,
										"default_fontsize" : 12.0,
										"default_fontface" : 0,
										"default_fontname" : "Arial",
										"gridonopen" : 1,
										"gridsize" : [ 15.0, 15.0 ],
										"gridsnaponopen" : 1,
										"objectsnaponopen" : 1,
										"statusbarvisible" : 2,
										"toolbarvisible" : 1,
										"lefttoolbarpinned" : 0,
										"toptoolbarpinned" : 0,
										"righttoolbarpinned" : 0,
										"bottomtoolbarpinned" : 0,
										"toolbars_unpinned_last_save" : 0,
										"tallnewobj" : 0,
										"boxanimatetime" : 200,
										"enablehscroll" : 1,
										"enablevscroll" : 1,
										"devicewidth" : 0.0,
										"description" : "",
										"digest" : "",
										"tags" : "",
										"style" : "",
										"subpatcher_template" : "",
										"assistshowspatchername" : 0,
										"boxes" : [ 											{
												"box" : 												{
													"id" : "obj-10",
													"maxclass" : "comment",
													"numinlets" : 1,
													"numoutlets" : 0,
													"patching_rect" : [ 415.0, 82.0, 259.0, 20.0 ],
													"text" : "unpack before translating back to audio signals"
												}

											}
, 											{
												"box" : 												{
													"id" : "obj-8",
													"maxclass" : "comment",
													"numinlets" : 1,
													"numoutlets" : 0,
													"patching_rect" : [ 514.0, 132.0, 175.0, 20.0 ],
													"text" : "compensate delays to be equal"
												}

											}
, 											{
												"box" : 												{
													"comment" : "",
													"id" : "obj-6",
													"index" : 1,
													"maxclass" : "outlet",
													"numinlets" : 1,
													"numoutlets" : 0,
													"patching_rect" : [ 30.0, 199.0, 30.0, 30.0 ]
												}

											}
, 											{
												"box" : 												{
													"id" : "obj-5",
													"maxclass" : "newobj",
													"numinlets" : 1,
													"numoutlets" : 4,
													"outlettype" : [ "", "", "", "" ],
													"patching_rect" : [ 30.0, 82.0, 377.999999999999943, 22.0 ],
													"text" : "fl.unpack~ 4"
												}

											}
, 											{
												"box" : 												{
													"fontname" : "Arial",
													"fontsize" : 12.0,
													"id" : "obj-4",
													"maxclass" : "newobj",
													"numinlets" : 2,
													"numoutlets" : 1,
													"outlettype" : [ "signal" ],
													"patching_rect" : [ 389.0, 132.0, 114.0, 22.0 ],
													"text" : "fl.sink~ /delay 3584"
												}

											}
, 											{
												"box" : 												{
													"fontname" : "Arial",
													"fontsize" : 12.0,
													"id" : "obj-2",
													"maxclass" : "newobj",
													"numinlets" : 2,
													"numoutlets" : 1,
													"outlettype" : [ "signal" ],
													"patching_rect" : [ 269.333333333333258, 132.0, 114.0, 22.0 ],
													"text" : "fl.sink~ /delay 3072"
												}

											}
, 											{
												"box" : 												{
													"fontname" : "Arial",
													"fontsize" : 12.0,
													"id" : "obj-1",
													"maxclass" : "newobj",
													"numinlets" : 2,
													"numoutlets" : 1,
													"outlettype" : [ "signal" ],
													"patching_rect" : [ 149.666666666666629, 132.0, 114.0, 22.0 ],
													"text" : "fl.sink~ /delay 2048"
												}

											}
, 											{
												"box" : 												{
													"fontname" : "Arial",
													"fontsize" : 12.0,
													"id" : "obj-3",
													"maxclass" : "newobj",
													"numinlets" : 2,
													"numoutlets" : 1,
													"outlettype" : [ "signal" ],
													"patching_rect" : [ 30.0, 132.0, 60.0, 22.0 ],
													"text" : "fl.sink~"
												}

											}
, 											{
												"box" : 												{
													"comment" : "",
													"id" : "obj-39",
													"index" : 1,
													"maxclass" : "inlet",
													"numinlets" : 0,
													"numoutlets" : 1,
													"outlettype" : [ "" ],
													"patching_rect" : [ 30.0, 32.0, 30.0, 30.0 ]
												}

											}
 ],
										"lines" : [ 											{
												"patchline" : 												{
													"destination" : [ "obj-6", 0 ],
													"midpoints" : [ 159.166666666666629, 180.0, 39.5, 180.0 ],
													"source" : [ "obj-1", 0 ]
												}

											}
, 											{
												"patchline" : 												{
													"destination" : [ "obj-6", 0 ],
													"midpoints" : [ 278.833333333333258, 180.0, 39.5, 180.0 ],
													"source" : [ "obj-2", 0 ]
												}

											}
, 											{
												"patchline" : 												{
													"destination" : [ "obj-6", 0 ],
													"midpoints" : [ 39.5, 180.0, 39.5, 180.0 ],
													"source" : [ "obj-3", 0 ]
												}

											}
, 											{
												"patchline" : 												{
													"destination" : [ "obj-5", 0 ],
													"source" : [ "obj-39", 0 ]
												}

											}
, 											{
												"patchline" : 												{
													"destination" : [ "obj-6", 0 ],
													"midpoints" : [ 398.5, 180.0, 39.5, 180.0 ],
													"source" : [ "obj-4", 0 ]
												}

											}
, 											{
												"patchline" : 												{
													"destination" : [ "obj-1", 0 ],
													"source" : [ "obj-5", 1 ]
												}

											}
, 											{
												"patchline" : 												{
													"destination" : [ "obj-2", 0 ],
													"source" : [ "obj-5", 2 ]
												}

											}
, 											{
												"patchline" : 												{
													"destination" : [ "obj-3", 0 ],
													"source" : [ "obj-5", 0 ]
												}

											}
, 											{
												"patchline" : 												{
													"destination" : [ "obj-4", 0 ],
													"source" : [ "obj-5", 3 ]
												}

											}
 ]
									}
,
									"patching_rect" : [ 3.75, 759.5, 91.0, 22.0 ],
									"saved_object_attributes" : 									{
										"description" : "",
										"digest" : "",
										"globalpatchername" : "",
										"tags" : ""
									}
,
									"text" : "p multi_res_out"
								}

							}
, 							{
								"box" : 								{
									"hidden" : 1,
									"id" : "obj-11",
									"maxclass" : "newobj",
									"numinlets" : 1,
									"numoutlets" : 1,
									"outlettype" : [ "" ],
									"patching_rect" : [ 258.5, 435.5, 72.0, 22.0 ],
									"text" : "loadmess 1"
								}

							}
, 							{
								"box" : 								{
									"format" : 6,
									"id" : "obj-13",
									"maxclass" : "flonum",
									"numinlets" : 1,
									"numoutlets" : 2,
									"outlettype" : [ "", "bang" ],
									"parameter_enable" : 0,
									"patching_rect" : [ 212.5, 469.5, 85.0, 22.0 ]
								}

							}
, 							{
								"box" : 								{
									"id" : "obj-9",
									"maxclass" : "newobj",
									"numinlets" : 1,
									"numoutlets" : 1,
									"outlettype" : [ "" ],
									"patching_rect" : [ 212.5, 526.5, 74.0, 22.0 ],
									"text" : "fl.frommax~"
								}

							}
, 							{
								"box" : 								{
									"id" : "obj-4",
									"maxclass" : "newobj",
									"numinlets" : 2,
									"numoutlets" : 1,
									"outlettype" : [ "" ],
									"patching_rect" : [ 3.75, 377.5, 202.0, 22.0 ],
									"text" : "fl.window~ hann /compensate linear"
								}

							}
, 							{
								"box" : 								{
									"fontface" : 0,
									"fontname" : "Arial",
									"fontsize" : 12.0,
									"id" : "obj-28",
									"maxclass" : "newobj",
									"numinlets" : 2,
									"numoutlets" : 1,
									"outlettype" : [ "" ],
									"patching_rect" : [ 128.5, 562.5, 103.0, 22.0 ],
									"text" : "fl.>~ 0."
								}

							}
, 							{
								"box" : 								{
									"fontname" : "Arial",
									"fontsize" : 12.0,
									"id" : "obj-27",
									"maxclass" : "newobj",
									"numinlets" : 2,
									"numoutlets" : 1,
									"outlettype" : [ "" ],
									"patching_rect" : [ 128.5, 469.5, 56.0, 22.0 ],
									"text" : "fl.hypot~"
								}

							}
, 							{
								"box" : 								{
									"fontname" : "Arial",
									"fontsize" : 12.0,
									"id" : "obj-26",
									"maxclass" : "newobj",
									"numinlets" : 2,
									"numoutlets" : 1,
									"outlettype" : [ "" ],
									"patching_rect" : [ 3.75, 650.5, 56.0, 22.0 ],
									"text" : "fl.*~"
								}

							}
, 							{
								"box" : 								{
									"fontname" : "Arial",
									"fontsize" : 12.0,
									"id" : "obj-22",
									"maxclass" : "newobj",
									"numinlets" : 2,
									"numoutlets" : 1,
									"outlettype" : [ "" ],
									"patching_rect" : [ 3.75, 687.5, 107.0, 22.0 ],
									"text" : "fl.ifft~ /normalise 1"
								}

							}
, 							{
								"box" : 								{
									"fontname" : "Arial",
									"fontsize" : 12.0,
									"id" : "obj-20",
									"maxclass" : "newobj",
									"numinlets" : 1,
									"numoutlets" : 2,
									"outlettype" : [ "", "" ],
									"patching_rect" : [ 3.75, 415.5, 107.0, 22.0 ],
									"text" : "fl.fft~ /normalise 1"
								}

							}
, 							{
								"box" : 								{
									"id" : "obj-5",
									"maxclass" : "ezdac~",
									"numinlets" : 2,
									"numoutlets" : 0,
									"patching_rect" : [ 3.75, 843.0, 45.0, 45.0 ]
								}

							}
, 							{
								"box" : 								{
									"fontsize" : 12.0,
									"id" : "obj-3",
									"linecount" : 10,
									"maxclass" : "comment",
									"numinlets" : 1,
									"numoutlets" : 0,
									"patching_rect" : [ 3.75, 103.0, 884.0, 141.0 ],
									"text" : "This example demonstrates Multi-resolution FFT processing with FrameLib. Multi-resolution FFT's deploy processes across multiple frame/window sizes and at different rates. This is particularly useful when you want to perform the same process across a wide spectrum, or in a scenario where window size configuration may effect the accuracy of your analysis.\n\nWith pfft~ and fft~ you are restricted to setting the frame and window size set before the DSP chain is compiled. In many circumstances it would be useful to run the same processing on frames of different sizes and this is currently not possible without stopping the patch and modifying the parameters of the pfft~ patcher or duplicating the process numerous times. This can impinge the usefulness of the system by reducing its efficiency in practice and the ability for rapid changes to facilitate creative workflow.\n\nBelow is a basic example of an amplitude gate that operates across 4 different window sizes with an overlap of 4."
								}

							}
, 							{
								"box" : 								{
									"fontface" : 1,
									"fontsize" : 20.0,
									"id" : "obj-1",
									"maxclass" : "comment",
									"numinlets" : 1,
									"numoutlets" : 0,
									"patching_rect" : [ 3.75, 65.0, 456.0, 29.0 ],
									"text" : "An example"
								}

							}
, 							{
								"box" : 								{
									"border" : 2.0,
									"id" : "obj-49",
									"linecolor" : [ 0.65098, 0.666667, 0.662745, 1.0 ],
									"maxclass" : "live.line",
									"numinlets" : 1,
									"numoutlets" : 0,
									"patching_rect" : [ 3.75, 96.0, 530.25, 5.0 ]
								}

							}
, 							{
								"box" : 								{
									"fontface" : 0,
									"fontname" : "Lato",
									"fontsize" : 44.0,
									"id" : "obj-43",
									"maxclass" : "comment",
									"numinlets" : 1,
									"numoutlets" : 0,
									"patching_rect" : [ 3.75, 4.0, 666.0, 59.0 ],
									"text" : "Multi-resolution FFT"
								}

							}
, 							{
								"box" : 								{
									"background" : 1,
									"bgcolor" : [ 0.165741, 0.364658, 0.14032, 1.0 ],
									"fontface" : 1,
									"hint" : "",
									"id" : "obj-36",
									"ignoreclick" : 1,
									"legacytextcolor" : 1,
									"maxclass" : "textbutton",
									"numinlets" : 1,
									"numoutlets" : 3,
									"outlettype" : [ "", "", "int" ],
									"parameter_enable" : 0,
									"patching_rect" : [ 583.75, 526.5, 20.0, 20.0 ],
									"rounded" : 60.0,
									"text" : "4",
									"textcolor" : [ 1.0, 1.0, 1.0, 1.0 ]
								}

							}
, 							{
								"box" : 								{
									"background" : 1,
									"bgcolor" : [ 0.165741, 0.364658, 0.14032, 1.0 ],
									"fontface" : 1,
									"hint" : "",
									"id" : "obj-31",
									"ignoreclick" : 1,
									"legacytextcolor" : 1,
									"maxclass" : "textbutton",
									"numinlets" : 1,
									"numoutlets" : 3,
									"outlettype" : [ "", "", "int" ],
									"parameter_enable" : 0,
									"patching_rect" : [ 226.75, 760.5, 20.0, 20.0 ],
									"rounded" : 60.0,
									"text" : "9",
									"textcolor" : [ 1.0, 1.0, 1.0, 1.0 ]
								}

							}
, 							{
								"box" : 								{
									"background" : 1,
									"bgcolor" : [ 0.165741, 0.364658, 0.14032, 1.0 ],
									"fontface" : 1,
									"hint" : "",
									"id" : "obj-33",
									"ignoreclick" : 1,
									"legacytextcolor" : 1,
									"maxclass" : "textbutton",
									"numinlets" : 1,
									"numoutlets" : 3,
									"outlettype" : [ "", "", "int" ],
									"parameter_enable" : 0,
									"patching_rect" : [ 221.75, 722.5, 20.0, 20.0 ],
									"rounded" : 60.0,
									"text" : "8",
									"textcolor" : [ 1.0, 1.0, 1.0, 1.0 ]
								}

							}
, 							{
								"box" : 								{
									"background" : 1,
									"bgcolor" : [ 0.165741, 0.364658, 0.14032, 1.0 ],
									"fontface" : 1,
									"hint" : "",
									"id" : "obj-29",
									"ignoreclick" : 1,
									"legacytextcolor" : 1,
									"maxclass" : "textbutton",
									"numinlets" : 1,
									"numoutlets" : 3,
									"outlettype" : [ "", "", "int" ],
									"parameter_enable" : 0,
									"patching_rect" : [ 422.75, 687.5, 20.0, 20.0 ],
									"rounded" : 60.0,
									"text" : "7",
									"textcolor" : [ 1.0, 1.0, 1.0, 1.0 ]
								}

							}
, 							{
								"box" : 								{
									"background" : 1,
									"bgcolor" : [ 0.165741, 0.364658, 0.14032, 1.0 ],
									"fontface" : 1,
									"hint" : "",
									"id" : "obj-25",
									"ignoreclick" : 1,
									"legacytextcolor" : 1,
									"maxclass" : "textbutton",
									"numinlets" : 1,
									"numoutlets" : 3,
									"outlettype" : [ "", "", "int" ],
									"parameter_enable" : 0,
									"patching_rect" : [ 448.75, 651.5, 20.0, 20.0 ],
									"rounded" : 60.0,
									"text" : "6",
									"textcolor" : [ 1.0, 1.0, 1.0, 1.0 ]
								}

							}
, 							{
								"box" : 								{
									"background" : 1,
									"bgcolor" : [ 0.165741, 0.364658, 0.14032, 1.0 ],
									"fontface" : 1,
									"hint" : "",
									"id" : "obj-21",
									"ignoreclick" : 1,
									"legacytextcolor" : 1,
									"maxclass" : "textbutton",
									"numinlets" : 1,
									"numoutlets" : 3,
									"outlettype" : [ "", "", "int" ],
									"parameter_enable" : 0,
									"patching_rect" : [ 545.75, 601.0, 20.0, 20.0 ],
									"rounded" : 60.0,
									"text" : "5",
									"textcolor" : [ 1.0, 1.0, 1.0, 1.0 ]
								}

							}
, 							{
								"box" : 								{
									"background" : 1,
									"bgcolor" : [ 0.165741, 0.364658, 0.14032, 1.0 ],
									"fontface" : 1,
									"hint" : "",
									"id" : "obj-15",
									"ignoreclick" : 1,
									"legacytextcolor" : 1,
									"maxclass" : "textbutton",
									"numinlets" : 1,
									"numoutlets" : 3,
									"outlettype" : [ "", "", "int" ],
									"parameter_enable" : 0,
									"patching_rect" : [ 1467.75, 390.5, 20.0, 20.0 ],
									"rounded" : 60.0,
									"text" : "4",
									"textcolor" : [ 1.0, 1.0, 1.0, 1.0 ]
								}

							}
, 							{
								"box" : 								{
									"background" : 1,
									"bgcolor" : [ 0.165741, 0.364658, 0.14032, 1.0 ],
									"fontface" : 1,
									"hint" : "",
									"id" : "obj-39",
									"ignoreclick" : 1,
									"legacytextcolor" : 1,
									"maxclass" : "textbutton",
									"numinlets" : 1,
									"numoutlets" : 3,
									"outlettype" : [ "", "", "int" ],
									"parameter_enable" : 0,
									"patching_rect" : [ 354.75, 377.5, 20.0, 20.0 ],
									"rounded" : 60.0,
									"text" : "2",
									"textcolor" : [ 1.0, 1.0, 1.0, 1.0 ]
								}

							}
, 							{
								"box" : 								{
									"background" : 1,
									"bgcolor" : [ 0.165741, 0.364658, 0.14032, 1.0 ],
									"fontface" : 1,
									"hint" : "",
									"id" : "obj-24",
									"ignoreclick" : 1,
									"legacytextcolor" : 1,
									"maxclass" : "textbutton",
									"numinlets" : 1,
									"numoutlets" : 3,
									"outlettype" : [ "", "", "int" ],
									"parameter_enable" : 0,
									"patching_rect" : [ 207.75, 416.5, 20.0, 20.0 ],
									"rounded" : 60.0,
									"text" : "3",
									"textcolor" : [ 1.0, 1.0, 1.0, 1.0 ]
								}

							}
, 							{
								"box" : 								{
									"background" : 1,
									"bgcolor" : [ 0.165741, 0.364658, 0.14032, 1.0 ],
									"fontface" : 1,
									"hint" : "",
									"id" : "obj-40",
									"ignoreclick" : 1,
									"legacytextcolor" : 1,
									"maxclass" : "textbutton",
									"numinlets" : 1,
									"numoutlets" : 3,
									"outlettype" : [ "", "", "int" ],
									"parameter_enable" : 0,
									"patching_rect" : [ 388.75, 344.5, 20.0, 20.0 ],
									"rounded" : 60.0,
									"text" : "1",
									"textcolor" : [ 1.0, 1.0, 1.0, 1.0 ]
								}

							}
, 							{
								"box" : 								{
									"angle" : 270.0,
									"background" : 1,
									"bgcolor" : [ 0.290196, 0.309804, 0.301961, 0.0 ],
									"border" : 3,
									"bordercolor" : [ 0.701961, 0.415686, 0.886275, 1.0 ],
									"id" : "obj-6",
									"maxclass" : "panel",
									"mode" : 0,
									"numinlets" : 1,
									"numoutlets" : 0,
									"patching_rect" : [ 122.75, 462.5, 252.0, 130.0 ],
									"proportion" : 0.39
								}

							}
 ],
						"lines" : [ 							{
								"patchline" : 								{
									"destination" : [ "obj-13", 0 ],
									"hidden" : 1,
									"source" : [ "obj-11", 0 ]
								}

							}
, 							{
								"patchline" : 								{
									"destination" : [ "obj-22", 1 ],
									"source" : [ "obj-12", 0 ]
								}

							}
, 							{
								"patchline" : 								{
									"destination" : [ "obj-14", 0 ],
									"source" : [ "obj-13", 0 ]
								}

							}
, 							{
								"patchline" : 								{
									"destination" : [ "obj-9", 0 ],
									"source" : [ "obj-14", 0 ]
								}

							}
, 							{
								"patchline" : 								{
									"destination" : [ "obj-12", 0 ],
									"midpoints" : [ 101.25, 454.5, 101.0, 454.5 ],
									"order" : 1,
									"source" : [ "obj-20", 1 ]
								}

							}
, 							{
								"patchline" : 								{
									"destination" : [ "obj-26", 0 ],
									"midpoints" : [ 13.25, 454.5, 13.25, 454.5 ],
									"order" : 1,
									"source" : [ "obj-20", 0 ]
								}

							}
, 							{
								"patchline" : 								{
									"destination" : [ "obj-27", 1 ],
									"midpoints" : [ 101.25, 447.5, 175.0, 447.5 ],
									"order" : 0,
									"source" : [ "obj-20", 1 ]
								}

							}
, 							{
								"patchline" : 								{
									"destination" : [ "obj-27", 0 ],
									"midpoints" : [ 13.25, 454.5, 138.0, 454.5 ],
									"order" : 0,
									"source" : [ "obj-20", 0 ]
								}

							}
, 							{
								"patchline" : 								{
									"destination" : [ "obj-30", 0 ],
									"source" : [ "obj-22", 0 ]
								}

							}
, 							{
								"patchline" : 								{
									"destination" : [ "obj-51", 0 ],
									"source" : [ "obj-23", 0 ]
								}

							}
, 							{
								"patchline" : 								{
									"destination" : [ "obj-22", 0 ],
									"source" : [ "obj-26", 0 ]
								}

							}
, 							{
								"patchline" : 								{
									"destination" : [ "obj-28", 0 ],
									"order" : 1,
									"source" : [ "obj-27", 0 ]
								}

							}
, 							{
								"patchline" : 								{
									"destination" : [ "obj-9", 0 ],
									"midpoints" : [ 138.0, 520.5, 222.0, 520.5 ],
									"order" : 0,
									"source" : [ "obj-27", 0 ]
								}

							}
, 							{
								"patchline" : 								{
									"destination" : [ "obj-7", 0 ],
									"source" : [ "obj-28", 0 ]
								}

							}
, 							{
								"patchline" : 								{
									"destination" : [ "obj-41", 0 ],
									"source" : [ "obj-30", 0 ]
								}

							}
, 							{
								"patchline" : 								{
									"destination" : [ "obj-20", 0 ],
									"midpoints" : [ 13.25, 429.5 ],
									"source" : [ "obj-4", 0 ]
								}

							}
, 							{
								"patchline" : 								{
									"destination" : [ "obj-8", 0 ],
									"source" : [ "obj-41", 0 ]
								}

							}
, 							{
								"patchline" : 								{
									"destination" : [ "obj-4", 0 ],
									"source" : [ "obj-51", 0 ]
								}

							}
, 							{
								"patchline" : 								{
									"color" : [ 0.0, 0.871366560459137, 0.0, 1.0 ],
									"destination" : [ "obj-12", 1 ],
									"order" : 0,
									"source" : [ "obj-7", 0 ]
								}

							}
, 							{
								"patchline" : 								{
									"color" : [ 0.0, 0.871366560459137, 0.0, 1.0 ],
									"destination" : [ "obj-26", 1 ],
									"midpoints" : [ 138.0, 635.75, 50.25, 635.75 ],
									"order" : 1,
									"source" : [ "obj-7", 0 ]
								}

							}
, 							{
								"patchline" : 								{
									"destination" : [ "obj-5", 1 ],
									"order" : 0,
									"source" : [ "obj-8", 0 ]
								}

							}
, 							{
								"patchline" : 								{
									"destination" : [ "obj-5", 0 ],
									"order" : 1,
									"source" : [ "obj-8", 0 ]
								}

							}
, 							{
								"patchline" : 								{
									"destination" : [ "obj-28", 1 ],
									"source" : [ "obj-9", 0 ]
								}

							}
 ],
						"styles" : [ 							{
								"name" : "newobjBlue-1",
								"default" : 								{
									"accentcolor" : [ 0.317647, 0.654902, 0.976471, 1.0 ]
								}
,
								"parentstyle" : "",
								"multi" : 0
							}
, 							{
								"name" : "newobjYellow-1",
								"default" : 								{
									"fontsize" : [ 12.059008 ],
									"accentcolor" : [ 0.82517, 0.78181, 0.059545, 1.0 ]
								}
,
								"parentstyle" : "",
								"multi" : 0
							}
, 							{
								"name" : "numberGold-1",
								"default" : 								{
									"accentcolor" : [ 0.764706, 0.592157, 0.101961, 1.0 ]
								}
,
								"parentstyle" : "",
								"multi" : 0
							}
 ]
					}
,
					"patching_rect" : [ 64.0, 95.0, 128.0, 21.0 ],
					"saved_object_attributes" : 					{
						"description" : "",
						"digest" : "",
						"globalpatchername" : "",
						"tags" : ""
					}
,
					"text" : "p Multi-resolution Basics"
				}

			}
 ],
		"lines" : [  ],
		"parameters" : 		{
			"obj-2::obj-23::obj-21::obj-6" : [ "live.tab[4]", "live.tab[1]", 0 ],
			"obj-2::obj-23::obj-35" : [ "[3]", "Level", 0 ],
			"obj-2::obj-8::obj-50" : [ "live.gain~[1]", "Volume", 0 ],
			"parameterbanks" : 			{

			}
,
			"parameter_overrides" : 			{
				"obj-2::obj-23::obj-21::obj-6" : 				{
					"parameter_longname" : "live.tab[4]"
				}
,
				"obj-2::obj-23::obj-35" : 				{
					"parameter_longname" : "[3]"
				}

			}
,
			"inherited_shortname" : 1
		}
,
		"dependency_cache" : [ 			{
				"name" : "demosound.maxpat",
				"bootpath" : "C74:/help/msp",
				"type" : "JSON",
				"implicit" : 1
			}
, 			{
				"name" : "sine.svg",
				"bootpath" : "C74:/media/max/picts/m4l-picts",
				"type" : "svg",
				"implicit" : 1
			}
, 			{
				"name" : "saw.svg",
				"bootpath" : "C74:/media/max/picts/m4l-picts",
				"type" : "svg",
				"implicit" : 1
			}
, 			{
				"name" : "square.svg",
				"bootpath" : "C74:/media/max/picts/m4l-picts",
				"type" : "svg",
				"implicit" : 1
			}
, 			{
				"name" : "random.svg",
				"bootpath" : "C74:/media/max/picts/m4l-picts",
				"type" : "svg",
				"implicit" : 1
			}
, 			{
				"name" : "interfacecolor.js",
				"bootpath" : "C74:/interfaces",
				"type" : "TEXT",
				"implicit" : 1
			}
, 			{
				"name" : "fl.spectral_lpf.maxpat",
				"bootpath" : "~/Documents/Max Externals/FrameLib/Current Test Version/FrameLib/docs/tutorial-patchers",
				"patcherrelativepath" : ".",
				"type" : "JSON",
				"implicit" : 1
			}
, 			{
				"name" : "fl.spectral_hpf.maxpat",
				"bootpath" : "~/Documents/Max Externals/FrameLib/Current Test Version/FrameLib/docs/tutorial-patchers",
				"patcherrelativepath" : ".",
				"type" : "JSON",
				"implicit" : 1
			}
, 			{
				"name" : "fl-mono-h.maxpat",
				"bootpath" : "~/Documents/Max Externals/FrameLib/Current Test Version/FrameLib/docs/tutorial-patchers",
				"patcherrelativepath" : ".",
				"type" : "JSON",
				"implicit" : 1
			}
, 			{
				"name" : "fl.fft~.mxo",
				"type" : "iLaX"
			}
, 			{
				"name" : "fl.ifft~.mxo",
				"type" : "iLaX"
			}
, 			{
				"name" : "fl.times~.mxo",
				"type" : "iLaX"
			}
, 			{
				"name" : "fl.hypot~.mxo",
				"type" : "iLaX"
			}
, 			{
				"name" : "fl.greaterthan~.mxo",
				"type" : "iLaX"
			}
, 			{
				"name" : "fl.window~.mxo",
				"type" : "iLaX"
			}
, 			{
				"name" : "fl.frommax~.mxo",
				"type" : "iLaX"
			}
, 			{
				"name" : "fl.sink~.mxo",
				"type" : "iLaX"
			}
, 			{
				"name" : "fl.sink~.mxo",
				"type" : "iLaX"
			}
, 			{
				"name" : "fl.unpack~.mxo",
				"type" : "iLaX"
			}
, 			{
				"name" : "fl.interval~.mxo",
				"type" : "iLaX"
			}
, 			{
				"name" : "fl.interval~.mxo",
				"type" : "iLaX"
			}
, 			{
				"name" : "fl.source~.mxo",
				"type" : "iLaX"
			}
, 			{
				"name" : "fl.source~.mxo",
				"type" : "iLaX"
			}
, 			{
				"name" : "fl.pack~.mxo",
				"type" : "iLaX"
			}
, 			{
				"name" : "fl.ramp~.mxo",
				"type" : "iLaX"
			}
, 			{
				"name" : "fl.once~.mxo",
				"type" : "iLaX"
			}
, 			{
				"name" : "fl.once~.mxo",
				"type" : "iLaX"
			}
, 			{
				"name" : "fl.expr~.mxo",
				"type" : "iLaX"
			}
, 			{
				"name" : "fl.register~.mxo",
				"type" : "iLaX"
			}
 ],
		"autosave" : 0,
		"bgfillcolor_type" : "gradient",
		"bgfillcolor_color1" : [ 0.376471, 0.384314, 0.4, 1.0 ],
		"bgfillcolor_color2" : [ 0.290196, 0.309804, 0.301961, 1.0 ],
		"bgfillcolor_color" : [ 0.290196, 0.309804, 0.301961, 1.0 ]
	}

}
