#N canvas 358 90 1114 850 12;
#X obj 244 577 unsynced.fl.sink~;
#X obj 210 637 *~ 0.2;
#X obj 353 628 *~ 0.2;
#X obj 205 680 dac~;
#X obj 153 540 fl.*~;
#X obj 302 538 fl.*~;
#X obj 184 507 fl.cos~;
#X obj 395 419 fl.sin~;
#X obj 149 451 fl.window~ hann /size 16384;
#X obj 149 378 fl.read~ samps /units ms;
#X obj 151 338 fl.+~;
#X obj 151 306 fl.samplerate~ samples->ms;
#X obj 145 271 fl.ramp~ /mode requested /length 1000;
#X obj 133 106 fl.random~;
#X obj 388 106 fl.random~;
#X obj 566 105 fl.random~;
#X obj 135 150 fl.map~ linear 0 1 10000 20000;
#X obj 567 142 fl.map~ exp 0 1 20 16000;
#X obj 785 106 fl.random~;
#X obj 787 141 fl.*~ 1.5708;
#X obj 135 200 fl.tag~ length;
#X obj 148 409 fl.svf~ 500 0.7 bandpass;
#X obj 559 193 fl.tag~ freq;
#X obj 675 386 soundfiler;
#X floatatom 675 412 0 0 0 0 - - - 0;
#X obj 675 324 loadbang;
#X msg 675 354 read -resize voice.wav samps;
#X obj 921 370 table samps;
#X obj 389 150 fl.*~ 1000;
#N canvas 0 22 450 278 (subpatch) 0;
#X array array 17942 float 2;
#X coords 0 1 17942 -1 200 140 1 0 0;
#X restore 651 641 graph;
#X obj 434 635 send array;
#X obj 433 598 list prepend 0;
#X obj 414 491 fl.pack~ 2;
#X obj 468 458 fl.length~;
#X msg 506 555 \; array resize \$1;
#X obj 433 526 fl.topd~ =2;
#X msg 265 41 rt 1;
#X obj 45 77 unsynced.fl.interval~ 500 -rt 0;
#X obj 28 607 unsynced.fl.sink~ -buffer outputs;
#X msg 119 31 process 60000;
#X obj 820 432 table outputs 120000;
#X msg 61 30 reset;
#X text 560 477 This patch is a non realimte verison of the stero granular
(2b) example from the Max tests. Note that the interla pd sounds folder
needs to be in the search path;
#X text 631 559 This seems to make the audio pause if I select a menu
;
#X connect 0 1 2 0;
#X connect 1 0 3 0;
#X connect 2 0 3 1;
#X connect 4 0 38 1;
#X connect 5 0 0 1;
#X connect 6 0 4 1;
#X connect 7 0 5 1;
#X connect 8 0 4 0;
#X connect 8 0 5 0;
#X connect 8 0 32 0;
#X connect 8 0 33 0;
#X connect 9 0 21 0;
#X connect 10 0 9 0;
#X connect 11 0 10 0;
#X connect 12 0 11 0;
#X connect 13 0 16 0;
#X connect 14 0 28 0;
#X connect 15 0 17 0;
#X connect 16 0 20 0;
#X connect 17 0 22 0;
#X connect 18 0 19 0;
#X connect 19 0 6 0;
#X connect 19 0 7 0;
#X connect 20 0 12 1;
#X connect 21 0 8 0;
#X connect 22 0 21 1;
#X connect 23 0 24 0;
#X connect 25 0 26 0;
#X connect 26 0 23 0;
#X connect 28 0 10 1;
#X connect 31 0 30 0;
#X connect 32 0 35 0;
#X connect 33 0 32 1;
#X connect 35 0 31 0;
#X connect 35 1 34 0;
#X connect 36 0 37 0;
#X connect 37 0 0 0;
#X connect 37 0 38 0;
#X connect 37 1 13 0;
#X connect 37 1 14 0;
#X connect 37 1 15 0;
#X connect 37 1 18 0;
#X connect 37 1 12 0;
#X connect 38 1 1 0;
#X connect 39 0 37 0;
#X connect 41 0 37 0;
