#N canvas 316 325 1076 735 12;
#X obj 81 551 unsynced.fl.sink~;
#X obj 227 550 unsynced.fl.sink~;
#X obj 193 610 *~ 0.2;
#X obj 336 601 *~ 0.2;
#X obj 188 653 dac~;
#X obj 136 513 fl.*~;
#X obj 285 511 fl.*~;
#X obj 167 480 fl.cos~;
#X obj 312 479 fl.sin~;
#X obj 132 424 fl.window~ hann /size 16384;
#X obj 132 351 fl.read~ samps /units ms;
#X obj 134 311 fl.+~;
#X obj 134 279 fl.samplerate~ samples->ms;
#X obj 128 244 fl.ramp~ /mode requested /length 1000;
#X obj 116 79 fl.random~;
#X obj 371 79 fl.random~;
#X obj 549 78 fl.random~;
#X obj 118 123 fl.map~ linear 0 1 10000 20000;
#X obj 550 115 fl.map~ exp 0 1 20 16000;
#X obj 768 79 fl.random~;
#X obj 770 114 fl.*~ 1.5708;
#X obj 118 173 fl.tag~ length;
#X obj 131 382 fl.svf~ 500 0.7 bandpass;
#X obj 542 166 fl.tag~ freq;
#X obj 658 359 soundfiler;
#X floatatom 658 385 0 0 0 0 - - - 0;
#X obj 658 297 loadbang;
#X msg 658 327 read -resize voice.wav samps;
#X text 515 467 This patch is the same as the stero granular (2b) example
from the Max tests. Note that the interla pd sounds folder needs to
be in the search path;
#X obj 904 343 table samps;
#X floatatom 430 594 5 0 0 0 - - - 0;
#X obj 432 569 bng 15 250 50 0 empty empty empty 17 7 0 10 #fcfcfc
#000000 #000000;
#X obj 404 538 fl.topd~ =4;
#X obj 372 123 fl.*~ 1000;
#X obj 99 21 unsynced.fl.interval~ 50;
#X connect 0 1 2 0;
#X connect 1 1 3 0;
#X connect 2 0 4 0;
#X connect 3 0 4 1;
#X connect 5 0 0 1;
#X connect 6 0 1 1;
#X connect 7 0 5 1;
#X connect 8 0 6 1;
#X connect 8 0 32 0;
#X connect 9 0 5 0;
#X connect 9 0 6 0;
#X connect 10 0 22 0;
#X connect 11 0 10 0;
#X connect 12 0 11 0;
#X connect 13 0 12 0;
#X connect 14 0 17 0;
#X connect 15 0 33 0;
#X connect 16 0 18 0;
#X connect 17 0 21 0;
#X connect 18 0 23 0;
#X connect 19 0 20 0;
#X connect 20 0 7 0;
#X connect 20 0 8 0;
#X connect 21 0 13 1;
#X connect 22 0 9 0;
#X connect 23 0 22 1;
#X connect 24 0 25 0;
#X connect 26 0 27 0;
#X connect 27 0 24 0;
#X connect 32 0 30 0;
#X connect 32 0 31 0;
#X connect 33 0 11 1;
#X connect 34 0 0 0;
#X connect 34 0 1 0;
#X connect 34 1 14 0;
#X connect 34 1 15 0;
#X connect 34 1 16 0;
#X connect 34 1 19 0;
#X connect 34 1 13 0;
