{
	"patcher" : 	{
		"fileversion" : 1,
		"appversion" : 		{
			"major" : 8,
			"minor" : 3,
			"revision" : 0,
			"architecture" : "x64",
			"modernui" : 1
		}
,
		"classnamespace" : "box",
		"rect" : [ 34.0, 87.0, 652.0, 787.0 ],
		"bglocked" : 0,
		"openinpresentation" : 0,
		"default_fontsize" : 12.0,
		"default_fontface" : 0,
		"default_fontname" : "Arial",
		"gridonopen" : 2,
		"gridsize" : [ 15.0, 15.0 ],
		"gridsnaponopen" : 2,
		"objectsnaponopen" : 1,
		"statusbarvisible" : 2,
		"toolbarvisible" : 1,
		"lefttoolbarpinned" : 0,
		"toptoolbarpinned" : 0,
		"righttoolbarpinned" : 0,
		"bottomtoolbarpinned" : 0,
		"toolbars_unpinned_last_save" : 0,
		"tallnewobj" : 0,
		"boxanimatetime" : 200,
		"enablehscroll" : 1,
		"enablevscroll" : 1,
		"devicewidth" : 0.0,
		"description" : "",
		"digest" : "",
		"tags" : "",
		"style" : "",
		"subpatcher_template" : "",
		"showrootpatcherontab" : 0,
		"showontab" : 0,
		"assistshowspatchername" : 0,
		"boxes" : [ 			{
				"box" : 				{
					"id" : "obj-1",
					"maxclass" : "newobj",
					"numinlets" : 0,
					"numoutlets" : 0,
					"patcher" : 					{
						"fileversion" : 1,
						"appversion" : 						{
							"major" : 8,
							"minor" : 3,
							"revision" : 0,
							"architecture" : "x64",
							"modernui" : 1
						}
,
						"classnamespace" : "box",
						"rect" : [ 34.0, 113.0, 652.0, 761.0 ],
						"bglocked" : 0,
						"openinpresentation" : 0,
						"default_fontsize" : 13.0,
						"default_fontface" : 0,
						"default_fontname" : "Arial",
						"gridonopen" : 2,
						"gridsize" : [ 15.0, 15.0 ],
						"gridsnaponopen" : 2,
						"objectsnaponopen" : 1,
						"statusbarvisible" : 2,
						"toolbarvisible" : 1,
						"lefttoolbarpinned" : 0,
						"toptoolbarpinned" : 0,
						"righttoolbarpinned" : 0,
						"bottomtoolbarpinned" : 0,
						"toolbars_unpinned_last_save" : 0,
						"tallnewobj" : 0,
						"boxanimatetime" : 200,
						"enablehscroll" : 1,
						"enablevscroll" : 1,
						"devicewidth" : 0.0,
						"description" : "",
						"digest" : "",
						"tags" : "",
						"style" : "",
						"subpatcher_template" : "",
						"showontab" : 1,
						"assistshowspatchername" : 0,
						"boxes" : [ 							{
								"box" : 								{
									"id" : "obj-10",
									"maxclass" : "comment",
									"numinlets" : 1,
									"numoutlets" : 0,
									"patching_rect" : [ 106.04998779296875, 702.0, 432.0, 21.0 ],
									"text" : "Note that the padding value detaults to zero, but can be set by parameter."
								}

							}
, 							{
								"box" : 								{
									"id" : "obj-6",
									"maxclass" : "comment",
									"numinlets" : 1,
									"numoutlets" : 0,
									"patching_rect" : [ 350.0, 555.0, 134.0, 21.0 ],
									"text" : "Look inside for details"
								}

							}
, 							{
								"box" : 								{
									"id" : "obj-9",
									"maxclass" : "comment",
									"numinlets" : 1,
									"numoutlets" : 0,
									"patching_rect" : [ 58.5, 375.0, 320.0, 21.0 ],
									"text" : "(use the same values for the real and imaginary parts)"
								}

							}
, 							{
								"box" : 								{
									"id" : "obj-12",
									"maxclass" : "comment",
									"numinlets" : 1,
									"numoutlets" : 0,
									"patching_rect" : [ 138.0, 331.0, 258.0, 21.0 ],
									"text" : "Generate pairs of inputs of different lengths"
								}

							}
, 							{
								"box" : 								{
									"dontreplace" : 1,
									"id" : "obj-7",
									"maxclass" : "message",
									"numinlets" : 2,
									"numoutlets" : 1,
									"outlettype" : [ "" ],
									"patching_rect" : [ 231.0, 645.0, 189.0, 23.0 ]
								}

							}
, 							{
								"box" : 								{
									"id" : "obj-5",
									"local" : 1,
									"maxclass" : "ezdac~",
									"numinlets" : 2,
									"numoutlets" : 0,
									"patching_rect" : [ 30.0, 690.0, 45.0, 45.0 ]
								}

							}
, 							{
								"box" : 								{
									"arrows" : 1,
									"border" : 4.0,
									"id" : "obj-37",
									"maxclass" : "live.line",
									"numinlets" : 1,
									"numoutlets" : 0,
									"patching_rect" : [ 429.0, 648.899993896484375, 46.04998779296875, 12.100006103515625 ]
								}

							}
, 							{
								"box" : 								{
									"id" : "obj-18",
									"maxclass" : "comment",
									"numinlets" : 1,
									"numoutlets" : 0,
									"patching_rect" : [ 480.0, 645.0, 150.0, 21.0 ],
									"text" : "Observe output changes"
								}

							}
, 							{
								"box" : 								{
									"bgmode" : 0,
									"border" : 1,
									"clickthrough" : 0,
									"embed" : 1,
									"enablehscroll" : 0,
									"enablevscroll" : 0,
									"id" : "obj-1",
									"lockeddragscroll" : 0,
									"lockedsize" : 0,
									"maxclass" : "bpatcher",
									"numinlets" : 0,
									"numoutlets" : 1,
									"offset" : [ 0.0, 0.0 ],
									"outlettype" : [ "" ],
									"patcher" : 									{
										"fileversion" : 1,
										"appversion" : 										{
											"major" : 8,
											"minor" : 3,
											"revision" : 0,
											"architecture" : "x64",
											"modernui" : 1
										}
,
										"classnamespace" : "box",
										"rect" : [ 747.0, 174.0, 357.0, 480.0 ],
										"bglocked" : 0,
										"openinpresentation" : 1,
										"default_fontsize" : 12.0,
										"default_fontface" : 0,
										"default_fontname" : "Arial",
										"gridonopen" : 1,
										"gridsize" : [ 15.0, 15.0 ],
										"gridsnaponopen" : 1,
										"objectsnaponopen" : 1,
										"statusbarvisible" : 2,
										"toolbarvisible" : 1,
										"lefttoolbarpinned" : 0,
										"toptoolbarpinned" : 0,
										"righttoolbarpinned" : 0,
										"bottomtoolbarpinned" : 0,
										"toolbars_unpinned_last_save" : 0,
										"tallnewobj" : 0,
										"boxanimatetime" : 200,
										"enablehscroll" : 1,
										"enablevscroll" : 1,
										"devicewidth" : 0.0,
										"description" : "",
										"digest" : "",
										"tags" : "",
										"style" : "",
										"subpatcher_template" : "",
										"assistshowspatchername" : 0,
										"boxes" : [ 											{
												"box" : 												{
													"id" : "obj-3",
													"maxclass" : "newobj",
													"numinlets" : 1,
													"numoutlets" : 1,
													"outlettype" : [ "" ],
													"patching_rect" : [ 40.0, 54.0, 54.0, 22.0 ],
													"text" : "deferlow"
												}

											}
, 											{
												"box" : 												{
													"id" : "obj-2",
													"maxclass" : "newobj",
													"numinlets" : 1,
													"numoutlets" : 1,
													"outlettype" : [ "" ],
													"patching_rect" : [ 40.0, 16.0, 70.0, 22.0 ],
													"text" : "loadmess 0"
												}

											}
, 											{
												"box" : 												{
													"id" : "obj-4",
													"maxclass" : "newobj",
													"numinlets" : 2,
													"numoutlets" : 1,
													"outlettype" : [ "int" ],
													"patching_rect" : [ 40.0, 277.0, 29.5, 22.0 ],
													"text" : "+ 1"
												}

											}
, 											{
												"box" : 												{
													"comment" : "",
													"id" : "obj-11",
													"index" : 1,
													"maxclass" : "outlet",
													"numinlets" : 1,
													"numoutlets" : 0,
													"patching_rect" : [ 40.0, 363.0, 30.0, 30.0 ]
												}

											}
, 											{
												"box" : 												{
													"id" : "obj-8",
													"maxclass" : "message",
													"numinlets" : 2,
													"numoutlets" : 1,
													"outlettype" : [ "" ],
													"patching_rect" : [ 40.0, 319.0, 51.0, 22.0 ],
													"text" : "input $1"
												}

											}
, 											{
												"box" : 												{
													"fontsize" : 12.0,
													"id" : "obj-1",
													"maxclass" : "live.tab",
													"num_lines_patching" : 4,
													"num_lines_presentation" : 4,
													"numinlets" : 1,
													"numoutlets" : 3,
													"outlettype" : [ "", "", "float" ],
													"parameter_enable" : 1,
													"patching_rect" : [ 40.0, 88.0, 116.0, 171.0 ],
													"presentation" : 1,
													"presentation_rect" : [ 14.0, 14.0, 124.0, 171.0 ],
													"saved_attribute_attributes" : 													{
														"valueof" : 														{
															"parameter_enum" : [ "wrap", "shrink", "pad_in", "pad_out" ],
															"parameter_longname" : "live.tab",
															"parameter_mmax" : 3,
															"parameter_shortname" : "live.tab",
															"parameter_type" : 2,
															"parameter_unitstyle" : 9
														}

													}
,
													"varname" : "live.tab"
												}

											}
 ],
										"lines" : [ 											{
												"patchline" : 												{
													"destination" : [ "obj-4", 0 ],
													"source" : [ "obj-1", 0 ]
												}

											}
, 											{
												"patchline" : 												{
													"destination" : [ "obj-3", 0 ],
													"source" : [ "obj-2", 0 ]
												}

											}
, 											{
												"patchline" : 												{
													"destination" : [ "obj-1", 0 ],
													"source" : [ "obj-3", 0 ]
												}

											}
, 											{
												"patchline" : 												{
													"destination" : [ "obj-8", 0 ],
													"source" : [ "obj-4", 0 ]
												}

											}
, 											{
												"patchline" : 												{
													"destination" : [ "obj-11", 0 ],
													"midpoints" : [ 49.5, 341.0, 49.5, 341.0 ],
													"source" : [ "obj-8", 0 ]
												}

											}
 ],
										"styles" : [ 											{
												"name" : "newobjBlue-1",
												"default" : 												{
													"accentcolor" : [ 0.317647, 0.654902, 0.976471, 1.0 ]
												}
,
												"parentstyle" : "",
												"multi" : 0
											}
, 											{
												"name" : "newobjYellow-1",
												"default" : 												{
													"accentcolor" : [ 0.82517, 0.78181, 0.059545, 1.0 ],
													"fontsize" : [ 12.059008 ]
												}
,
												"parentstyle" : "",
												"multi" : 0
											}
, 											{
												"name" : "numberGold-1",
												"default" : 												{
													"accentcolor" : [ 0.764706, 0.592157, 0.101961, 1.0 ]
												}
,
												"parentstyle" : "",
												"multi" : 0
											}
 ]
									}
,
									"patching_rect" : [ 465.0, 315.0, 150.0, 195.0 ],
									"viewvisibility" : 1
								}

							}
, 							{
								"box" : 								{
									"dontreplace" : 1,
									"id" : "obj-33",
									"maxclass" : "message",
									"numinlets" : 2,
									"numoutlets" : 1,
									"outlettype" : [ "" ],
									"patching_rect" : [ 30.0, 645.0, 189.0, 23.0 ]
								}

							}
, 							{
								"box" : 								{
									"id" : "obj-31",
									"maxclass" : "newobj",
									"numinlets" : 1,
									"numoutlets" : 2,
									"outlettype" : [ "", "" ],
									"patching_rect" : [ 30.0, 585.0, 80.0, 23.0 ],
									"text" : "fl.tomax~ =2"
								}

							}
, 							{
								"box" : 								{
									"id" : "obj-30",
									"maxclass" : "newobj",
									"numinlets" : 2,
									"numoutlets" : 1,
									"outlettype" : [ "" ],
									"patching_rect" : [ 247.5, 435.0, 102.0, 23.0 ],
									"text" : "fl.register~ 3 0.1"
								}

							}
, 							{
								"box" : 								{
									"id" : "obj-29",
									"maxclass" : "newobj",
									"numinlets" : 2,
									"numoutlets" : 1,
									"outlettype" : [ "" ],
									"patching_rect" : [ 30.0, 435.0, 139.0, 23.0 ],
									"text" : "fl.register~ 2.2 1.1 -0.1"
								}

							}
, 							{
								"box" : 								{
									"id" : "obj-28",
									"maxclass" : "newobj",
									"numinlets" : 5,
									"numoutlets" : 1,
									"outlettype" : [ "" ],
									"patcher" : 									{
										"fileversion" : 1,
										"appversion" : 										{
											"major" : 8,
											"minor" : 3,
											"revision" : 0,
											"architecture" : "x64",
											"modernui" : 1
										}
,
										"classnamespace" : "box",
										"rect" : [ 67.0, 166.0, 1068.0, 342.0 ],
										"bglocked" : 0,
										"openinpresentation" : 0,
										"default_fontsize" : 12.0,
										"default_fontface" : 0,
										"default_fontname" : "Arial",
										"gridonopen" : 1,
										"gridsize" : [ 15.0, 15.0 ],
										"gridsnaponopen" : 1,
										"objectsnaponopen" : 1,
										"statusbarvisible" : 2,
										"toolbarvisible" : 1,
										"lefttoolbarpinned" : 0,
										"toptoolbarpinned" : 0,
										"righttoolbarpinned" : 0,
										"bottomtoolbarpinned" : 0,
										"toolbars_unpinned_last_save" : 0,
										"tallnewobj" : 0,
										"boxanimatetime" : 200,
										"enablehscroll" : 1,
										"enablevscroll" : 1,
										"devicewidth" : 0.0,
										"description" : "",
										"digest" : "",
										"tags" : "",
										"style" : "",
										"subpatcher_template" : "",
										"assistshowspatchername" : 0,
										"boxes" : [ 											{
												"box" : 												{
													"id" : "obj-18",
													"maxclass" : "comment",
													"numinlets" : 1,
													"numoutlets" : 0,
													"patching_rect" : [ 948.0, 207.844086021505404, 82.0, 20.0 ],
													"text" : "Pack for ease"
												}

											}
, 											{
												"box" : 												{
													"id" : "obj-16",
													"maxclass" : "newobj",
													"numinlets" : 2,
													"numoutlets" : 1,
													"outlettype" : [ "" ],
													"patching_rect" : [ 701.423302114348076, 206.844086021505376, 213.0, 22.0 ],
													"text" : "fl.pack~"
												}

											}
, 											{
												"box" : 												{
													"id" : "obj-15",
													"maxclass" : "newobj",
													"numinlets" : 2,
													"numoutlets" : 1,
													"outlettype" : [ "" ],
													"patching_rect" : [ 477.615534742898717, 206.844086021505376, 214.0, 22.0 ],
													"text" : "fl.pack~"
												}

											}
, 											{
												"box" : 												{
													"id" : "obj-14",
													"maxclass" : "newobj",
													"numinlets" : 2,
													"numoutlets" : 1,
													"outlettype" : [ "" ],
													"patching_rect" : [ 253.807767371449359, 206.844086021505376, 206.0, 22.0 ],
													"text" : "fl.pack~"
												}

											}
, 											{
												"box" : 												{
													"id" : "obj-12",
													"maxclass" : "newobj",
													"numinlets" : 2,
													"numoutlets" : 1,
													"outlettype" : [ "" ],
													"patching_rect" : [ 30.0, 206.844086021505376, 206.000000000000028, 22.0 ],
													"text" : "fl.pack~"
												}

											}
, 											{
												"box" : 												{
													"comment" : "Right Imag Frame",
													"id" : "obj-3",
													"index" : 4,
													"maxclass" : "inlet",
													"numinlets" : 0,
													"numoutlets" : 1,
													"outlettype" : [ "" ],
													"patching_rect" : [ 217.000000000000028, 23.0, 30.0, 30.0 ]
												}

											}
, 											{
												"box" : 												{
													"comment" : "Right Real Frame",
													"id" : "obj-7",
													"index" : 3,
													"maxclass" : "inlet",
													"numinlets" : 0,
													"numoutlets" : 1,
													"outlettype" : [ "" ],
													"patching_rect" : [ 154.666666666666686, 53.0, 30.0, 30.0 ]
												}

											}
, 											{
												"box" : 												{
													"id" : "obj-6",
													"maxclass" : "newobj",
													"numinlets" : 1,
													"numoutlets" : 1,
													"outlettype" : [ "" ],
													"patching_rect" : [ 925.231069485797434, 166.0, 116.0, 22.0 ],
													"text" : "fl.frommax~ params"
												}

											}
, 											{
												"box" : 												{
													"comment" : "Mode Selector",
													"id" : "obj-5",
													"index" : 5,
													"maxclass" : "inlet",
													"numinlets" : 0,
													"numoutlets" : 1,
													"outlettype" : [ "" ],
													"patching_rect" : [ 925.231069485797434, 58.0, 30.0, 30.0 ]
												}

											}
, 											{
												"box" : 												{
													"comment" : "Result",
													"id" : "obj-4",
													"index" : 1,
													"maxclass" : "outlet",
													"numinlets" : 1,
													"numoutlets" : 0,
													"patching_rect" : [ 30.0, 294.0, 30.0, 30.0 ]
												}

											}
, 											{
												"box" : 												{
													"comment" : "Left Imag Frame",
													"id" : "obj-2",
													"index" : 2,
													"maxclass" : "inlet",
													"numinlets" : 0,
													"numoutlets" : 1,
													"outlettype" : [ "" ],
													"patching_rect" : [ 92.333333333333343, 83.0, 30.0, 30.0 ]
												}

											}
, 											{
												"box" : 												{
													"comment" : "Left Real Frame",
													"id" : "obj-1",
													"index" : 1,
													"maxclass" : "inlet",
													"numinlets" : 0,
													"numoutlets" : 1,
													"outlettype" : [ "" ],
													"patching_rect" : [ 30.0, 113.0, 30.0, 30.0 ]
												}

											}
, 											{
												"box" : 												{
													"id" : "obj-27",
													"maxclass" : "newobj",
													"numinlets" : 4,
													"numoutlets" : 2,
													"outlettype" : [ "", "" ],
													"patching_rect" : [ 701.423302114348076, 166.0, 213.0, 22.0 ],
													"text" : "fl.complex.-~ /mismatch pad_out"
												}

											}
, 											{
												"box" : 												{
													"id" : "obj-26",
													"maxclass" : "newobj",
													"numinlets" : 4,
													"numoutlets" : 2,
													"outlettype" : [ "", "" ],
													"patching_rect" : [ 477.615534742898717, 166.0, 214.0, 22.0 ],
													"text" : "fl.complex.-~ /mismatch pad_in"
												}

											}
, 											{
												"box" : 												{
													"id" : "obj-25",
													"maxclass" : "newobj",
													"numinlets" : 5,
													"numoutlets" : 1,
													"outlettype" : [ "" ],
													"patching_rect" : [ 30.0, 251.688172043010752, 914.231069485797434, 22.0 ],
													"text" : "fl.select~ 4"
												}

											}
, 											{
												"box" : 												{
													"id" : "obj-24",
													"maxclass" : "newobj",
													"numinlets" : 4,
													"numoutlets" : 2,
													"outlettype" : [ "", "" ],
													"patching_rect" : [ 253.807767371449359, 166.0, 206.0, 22.0 ],
													"text" : "fl.complex.-~ /mismatch shrink"
												}

											}
, 											{
												"box" : 												{
													"id" : "obj-13",
													"maxclass" : "newobj",
													"numinlets" : 4,
													"numoutlets" : 2,
													"outlettype" : [ "", "" ],
													"patching_rect" : [ 30.0, 166.0, 206.000000000000028, 22.0 ],
													"text" : "fl.complex.-~ /mismatch wrap"
												}

											}
 ],
										"lines" : [ 											{
												"patchline" : 												{
													"destination" : [ "obj-13", 0 ],
													"order" : 3,
													"source" : [ "obj-1", 0 ]
												}

											}
, 											{
												"patchline" : 												{
													"destination" : [ "obj-24", 0 ],
													"midpoints" : [ 39.5, 154.0, 263.307767371449359, 154.0 ],
													"order" : 2,
													"source" : [ "obj-1", 0 ]
												}

											}
, 											{
												"patchline" : 												{
													"destination" : [ "obj-26", 0 ],
													"midpoints" : [ 39.5, 154.0, 487.115534742898717, 154.0 ],
													"order" : 1,
													"source" : [ "obj-1", 0 ]
												}

											}
, 											{
												"patchline" : 												{
													"destination" : [ "obj-27", 0 ],
													"midpoints" : [ 39.5, 154.0, 710.923302114348076, 154.0 ],
													"order" : 0,
													"source" : [ "obj-1", 0 ]
												}

											}
, 											{
												"patchline" : 												{
													"destination" : [ "obj-25", 0 ],
													"source" : [ "obj-12", 0 ]
												}

											}
, 											{
												"patchline" : 												{
													"destination" : [ "obj-12", 1 ],
													"source" : [ "obj-13", 1 ]
												}

											}
, 											{
												"patchline" : 												{
													"destination" : [ "obj-12", 0 ],
													"source" : [ "obj-13", 0 ]
												}

											}
, 											{
												"patchline" : 												{
													"destination" : [ "obj-25", 1 ],
													"source" : [ "obj-14", 0 ]
												}

											}
, 											{
												"patchline" : 												{
													"destination" : [ "obj-25", 2 ],
													"source" : [ "obj-15", 0 ]
												}

											}
, 											{
												"patchline" : 												{
													"destination" : [ "obj-25", 3 ],
													"source" : [ "obj-16", 0 ]
												}

											}
, 											{
												"patchline" : 												{
													"color" : [ 0.0, 0.871366560459137, 0.0, 1.0 ],
													"destination" : [ "obj-13", 1 ],
													"order" : 4,
													"source" : [ "obj-2", 0 ]
												}

											}
, 											{
												"patchline" : 												{
													"color" : [ 0.0, 0.871366560459137, 0.0, 1.0 ],
													"destination" : [ "obj-24", 1 ],
													"midpoints" : [ 101.833333333333343, 139.0, 325.64110070478273, 139.0 ],
													"order" : 3,
													"source" : [ "obj-2", 0 ]
												}

											}
, 											{
												"patchline" : 												{
													"color" : [ 0.0, 0.871366560459137, 0.0, 1.0 ],
													"destination" : [ "obj-26", 1 ],
													"midpoints" : [ 101.833333333333343, 139.0, 552.115534742898717, 139.0 ],
													"order" : 2,
													"source" : [ "obj-2", 0 ]
												}

											}
, 											{
												"patchline" : 												{
													"color" : [ 0.0, 0.871366560459137, 0.0, 1.0 ],
													"destination" : [ "obj-27", 1 ],
													"midpoints" : [ 101.833333333333343, 139.0, 775.589968781014704, 139.0 ],
													"order" : 1,
													"source" : [ "obj-2", 0 ]
												}

											}
, 											{
												"patchline" : 												{
													"color" : [ 0.0, 0.871366560459137, 0.0, 1.0 ],
													"destination" : [ "obj-6", 0 ],
													"midpoints" : [ 101.833333333333343, 139.0, 934.731069485797434, 139.0 ],
													"order" : 0,
													"source" : [ "obj-2", 0 ]
												}

											}
, 											{
												"patchline" : 												{
													"destination" : [ "obj-14", 1 ],
													"source" : [ "obj-24", 1 ]
												}

											}
, 											{
												"patchline" : 												{
													"destination" : [ "obj-14", 0 ],
													"source" : [ "obj-24", 0 ]
												}

											}
, 											{
												"patchline" : 												{
													"destination" : [ "obj-4", 0 ],
													"source" : [ "obj-25", 0 ]
												}

											}
, 											{
												"patchline" : 												{
													"destination" : [ "obj-15", 1 ],
													"source" : [ "obj-26", 1 ]
												}

											}
, 											{
												"patchline" : 												{
													"destination" : [ "obj-15", 0 ],
													"source" : [ "obj-26", 0 ]
												}

											}
, 											{
												"patchline" : 												{
													"destination" : [ "obj-16", 1 ],
													"source" : [ "obj-27", 1 ]
												}

											}
, 											{
												"patchline" : 												{
													"destination" : [ "obj-16", 0 ],
													"source" : [ "obj-27", 0 ]
												}

											}
, 											{
												"patchline" : 												{
													"color" : [ 0.101803958415985, 0.02226397395134, 0.736810863018036, 1.0 ],
													"destination" : [ "obj-13", 3 ],
													"order" : 3,
													"source" : [ "obj-3", 0 ]
												}

											}
, 											{
												"patchline" : 												{
													"color" : [ 0.101803958415985, 0.02226397395134, 0.736810863018036, 1.0 ],
													"destination" : [ "obj-24", 3 ],
													"midpoints" : [ 226.500000000000028, 109.0, 450.307767371449359, 109.0 ],
													"order" : 2,
													"source" : [ "obj-3", 0 ]
												}

											}
, 											{
												"patchline" : 												{
													"color" : [ 0.101803958415985, 0.02226397395134, 0.736810863018036, 1.0 ],
													"destination" : [ "obj-26", 3 ],
													"midpoints" : [ 226.500000000000028, 109.0, 682.115534742898717, 109.0 ],
													"order" : 1,
													"source" : [ "obj-3", 0 ]
												}

											}
, 											{
												"patchline" : 												{
													"color" : [ 0.101803958415985, 0.02226397395134, 0.736810863018036, 1.0 ],
													"destination" : [ "obj-27", 3 ],
													"midpoints" : [ 226.500000000000028, 109.0, 904.923302114348076, 109.0 ],
													"order" : 0,
													"source" : [ "obj-3", 0 ]
												}

											}
, 											{
												"patchline" : 												{
													"destination" : [ "obj-6", 0 ],
													"source" : [ "obj-5", 0 ]
												}

											}
, 											{
												"patchline" : 												{
													"destination" : [ "obj-25", 4 ],
													"source" : [ "obj-6", 0 ]
												}

											}
, 											{
												"patchline" : 												{
													"color" : [ 0.774332761764526, 0.0, 0.071713671088219, 1.0 ],
													"destination" : [ "obj-13", 2 ],
													"order" : 3,
													"source" : [ "obj-7", 0 ]
												}

											}
, 											{
												"patchline" : 												{
													"color" : [ 0.774332761764526, 0.0, 0.071713671088219, 1.0 ],
													"destination" : [ "obj-24", 2 ],
													"midpoints" : [ 164.166666666666686, 124.0, 387.974434038116044, 124.0 ],
													"order" : 2,
													"source" : [ "obj-7", 0 ]
												}

											}
, 											{
												"patchline" : 												{
													"color" : [ 0.774332761764526, 0.0, 0.071713671088219, 1.0 ],
													"destination" : [ "obj-26", 2 ],
													"midpoints" : [ 164.166666666666686, 124.0, 617.115534742898717, 124.0 ],
													"order" : 1,
													"source" : [ "obj-7", 0 ]
												}

											}
, 											{
												"patchline" : 												{
													"color" : [ 0.774332761764526, 0.0, 0.071713671088219, 1.0 ],
													"destination" : [ "obj-27", 2 ],
													"midpoints" : [ 164.166666666666686, 124.0, 840.256635447681447, 124.0 ],
													"order" : 0,
													"source" : [ "obj-7", 0 ]
												}

											}
 ]
									}
,
									"patching_rect" : [ 30.0, 525.0, 454.0, 23.0 ],
									"saved_object_attributes" : 									{
										"description" : "",
										"digest" : "",
										"globalpatchername" : "",
										"tags" : ""
									}
,
									"text" : "p complex_binary_mismatch"
								}

							}
, 							{
								"box" : 								{
									"fontname" : "Arial",
									"id" : "obj-2",
									"linecount" : 14,
									"maxclass" : "comment",
									"numinlets" : 1,
									"numoutlets" : 0,
									"patching_rect" : [ 15.0, 90.0, 623.0, 210.0 ],
									"text" : "FrameLib complex binary operators have a configurable logic for dealing with scenarios where there is a mismatch between the lengths of different pairs of inputs.  Note that pairs (real and imagiinary) of inputs are always padded with zeros to the longer of the two inputs where required.\n\nThe logic for pairs of inputs is accessed via the /mismatch parameter.\n\nThe available options are:\n\nwrap -  reads shorter imputs in a wrapped manner (the output is as long as the longest input)\nshrink - the output is as long as the shortest input and other values are discarded\npad_in - extends shorter inputs by padding them with the parameter padding value\npad_out - extends the output for missing values by padding it with the padding parameter value\n\nSee how these operate in practice for fl.complex.-~ below:"
								}

							}
, 							{
								"box" : 								{
									"id" : "obj-4",
									"maxclass" : "newobj",
									"numinlets" : 1,
									"numoutlets" : 1,
									"outlettype" : [ "" ],
									"patching_rect" : [ 30.0, 330.0, 101.0, 23.0 ],
									"text" : "fl.interval~ 1024"
								}

							}
, 							{
								"box" : 								{
									"border" : 0,
									"filename" : "fl.helpname.js",
									"id" : "obj-3",
									"ignoreclick" : 1,
									"jsarguments" : [ "FLOBJECTNAME" ],
									"maxclass" : "jsui",
									"numinlets" : 1,
									"numoutlets" : 1,
									"outlettype" : [ "" ],
									"parameter_enable" : 0,
									"patching_rect" : [ 15.0, 15.0, 435.0, 60.0 ]
								}

							}
 ],
						"lines" : [ 							{
								"patchline" : 								{
									"destination" : [ "obj-28", 4 ],
									"source" : [ "obj-1", 0 ]
								}

							}
, 							{
								"patchline" : 								{
									"destination" : [ "obj-31", 0 ],
									"source" : [ "obj-28", 0 ]
								}

							}
, 							{
								"patchline" : 								{
									"destination" : [ "obj-28", 1 ],
									"midpoints" : [ 39.5, 491.0, 148.25, 491.0 ],
									"order" : 0,
									"source" : [ "obj-29", 0 ]
								}

							}
, 							{
								"patchline" : 								{
									"destination" : [ "obj-28", 0 ],
									"order" : 1,
									"source" : [ "obj-29", 0 ]
								}

							}
, 							{
								"patchline" : 								{
									"destination" : [ "obj-28", 3 ],
									"midpoints" : [ 257.0, 491.0, 365.75, 491.0 ],
									"order" : 0,
									"source" : [ "obj-30", 0 ]
								}

							}
, 							{
								"patchline" : 								{
									"destination" : [ "obj-28", 2 ],
									"midpoints" : [ 257.0, 491.0, 257.0, 491.0 ],
									"order" : 1,
									"source" : [ "obj-30", 0 ]
								}

							}
, 							{
								"patchline" : 								{
									"destination" : [ "obj-33", 1 ],
									"midpoints" : [ 39.5, 634.0, 209.5, 634.0 ],
									"source" : [ "obj-31", 0 ]
								}

							}
, 							{
								"patchline" : 								{
									"destination" : [ "obj-7", 1 ],
									"midpoints" : [ 100.5, 619.0, 410.5, 619.0 ],
									"source" : [ "obj-31", 1 ]
								}

							}
, 							{
								"patchline" : 								{
									"destination" : [ "obj-29", 0 ],
									"order" : 1,
									"source" : [ "obj-4", 0 ]
								}

							}
, 							{
								"patchline" : 								{
									"destination" : [ "obj-30", 0 ],
									"midpoints" : [ 39.5, 417.0, 257.0, 417.0 ],
									"order" : 0,
									"source" : [ "obj-4", 0 ]
								}

							}
 ],
						"styles" : [ 							{
								"name" : "newobjBlue-1",
								"default" : 								{
									"accentcolor" : [ 0.317647, 0.654902, 0.976471, 1.0 ]
								}
,
								"parentstyle" : "",
								"multi" : 0
							}
, 							{
								"name" : "newobjYellow-1",
								"default" : 								{
									"accentcolor" : [ 0.82517, 0.78181, 0.059545, 1.0 ],
									"fontsize" : [ 12.059008 ]
								}
,
								"parentstyle" : "",
								"multi" : 0
							}
, 							{
								"name" : "numberGold-1",
								"default" : 								{
									"accentcolor" : [ 0.764706, 0.592157, 0.101961, 1.0 ]
								}
,
								"parentstyle" : "",
								"multi" : 0
							}
 ]
					}
,
					"patching_rect" : [ 271.0, 230.0, 70.0, 22.0 ],
					"saved_object_attributes" : 					{
						"description" : "",
						"digest" : "",
						"fontsize" : 13.0,
						"globalpatchername" : "",
						"tags" : ""
					}
,
					"text" : "p mismatch"
				}

			}
 ],
		"lines" : [  ],
		"parameters" : 		{
			"obj-1::obj-1::obj-1" : [ "live.tab", "live.tab", 0 ],
			"parameterbanks" : 			{

			}
,
			"inherited_shortname" : 1
		}
,
		"dependency_cache" : [ 			{
				"name" : "fl.complex.minus~.mxo",
				"type" : "iLaX"
			}
, 			{
				"name" : "fl.frommax~.mxo",
				"type" : "iLaX"
			}
, 			{
				"name" : "fl.helpname.js",
				"bootpath" : "~/Documents/Development/FrameLib/Packaging/Max/FrameLib/misc",
				"patcherrelativepath" : "../../../../../Packaging/Max/FrameLib/misc",
				"type" : "TEXT",
				"implicit" : 1
			}
, 			{
				"name" : "fl.interval~.mxo",
				"type" : "iLaX"
			}
, 			{
				"name" : "fl.pack~.mxo",
				"type" : "iLaX"
			}
, 			{
				"name" : "fl.register~.mxo",
				"type" : "iLaX"
			}
, 			{
				"name" : "fl.select~.mxo",
				"type" : "iLaX"
			}
, 			{
				"name" : "fl.tomax~.mxo",
				"type" : "iLaX"
			}
 ],
		"autosave" : 0
	}

}
